<svg width="20" height="20" viewBox="0 0 20 20" fill="none" xmlns="http://www.w3.org/2000/svg">
<path d="M8.1591 15.5385C8.22683 15.4981 8.29163 15.4671 8.32147 15.4158C8.51006 15.0915 8.86867 14.9333 9.22367 15.027C9.49785 15.0994 9.76181 15.4082 9.77156 15.668C9.78815 16.1098 9.61591 16.3607 9.20986 16.4872C9.19817 16.4908 9.1884 16.5006 9.17 16.5125C9.17 16.9798 9.17463 17.4521 9.16807 17.9242C9.16473 18.1641 9.17394 18.4122 9.1152 18.6406C9.07705 18.789 8.95056 18.9411 8.82229 19.0352C8.22927 19.4703 7.55903 19.689 6.82116 19.6161C6.11702 19.5466 5.48333 19.303 4.9423 18.8173C4.36266 18.2969 4.02512 17.6629 3.9314 16.8982C3.90047 16.6459 3.79337 16.5253 3.54418 16.4326C2.57493 16.072 1.9405 15.3994 1.73472 14.3587C1.62323 13.7948 1.71391 13.2613 1.95483 12.7504C2.01014 12.6331 1.98693 12.5692 1.8969 12.499C1.18416 11.9433 0.678224 11.2397 0.545234 10.3397C0.436547 9.60417 0.621972 8.91765 1.10565 8.31898C1.39147 7.9652 1.72692 7.70685 2.15905 7.57711C2.26496 7.54531 2.3808 7.54662 2.51016 7.53045C1.92951 6.55859 1.78654 5.55211 2.33456 4.52008C2.88659 3.48049 3.83377 3.08814 4.94809 2.98958C4.98617 2.4381 5.12089 1.93219 5.45109 1.48618C5.89302 0.889256 6.46452 0.52725 7.20434 0.408317C7.74265 0.321778 8.25143 0.374651 8.72086 0.644345C8.92435 0.761253 9.09334 0.940456 9.26988 1.10033C9.31087 1.13746 9.33622 1.2105 9.33861 1.26825C9.34686 1.4684 9.36289 1.67233 9.33281 1.8682C9.31814 1.96373 9.22404 2.09183 9.13746 2.12113C9.00526 2.16587 8.87633 2.09881 8.85637 1.92665C8.84595 1.83674 8.82853 1.74681 8.82763 1.65675C8.8242 1.31384 8.70674 1.15575 8.3869 1.0138C7.16262 0.470441 5.71139 1.34885 5.4788 2.61236C5.44071 2.81927 5.42996 3.03472 5.4364 3.2453C5.44263 3.4489 5.34221 3.50966 5.1692 3.50646C4.817 3.49996 4.47148 3.51329 4.13098 3.6327C3.24317 3.94404 2.66369 4.54952 2.52187 5.47302C2.3662 6.4867 2.74105 7.31499 3.61588 7.88769C3.75136 7.97639 3.84485 8.07205 3.76763 8.24442C3.70343 8.3877 3.60596 8.44222 3.45355 8.36332C3.25318 8.25958 3.05713 8.14195 2.84663 8.06454C2.47971 7.92962 2.13889 8.03131 1.85332 8.27366C1.26449 8.77338 0.917134 9.4001 1.01307 10.1921C1.07181 10.677 1.2654 11.1308 1.59438 11.4995C1.84067 11.7756 2.12356 12.0202 2.40018 12.2676C2.62865 12.4719 2.65137 12.4984 2.50385 12.7619C2.29994 13.1262 2.15935 13.5069 2.16782 13.9277C2.18203 14.6342 2.51457 15.1874 3.05175 15.6142C3.36011 15.8592 3.71774 16.0295 4.11422 16.1031C4.28804 16.1354 4.35383 16.2454 4.36187 16.4311C4.42037 17.7807 5.21128 18.7963 6.59599 19.1C7.32866 19.2607 7.98391 19.0358 8.57306 18.5985C8.61923 18.5642 8.65037 18.4799 8.65094 18.4186C8.65659 17.8028 8.65595 17.187 8.65175 16.5712C8.65137 16.5142 8.62697 16.4475 8.59167 16.4026C8.5035 16.2905 8.40971 16.1805 8.30372 16.0858C8.25423 16.0416 8.17157 16.0154 8.10344 16.0144C7.68107 16.008 7.25566 15.9806 6.83698 16.0203C6.4671 16.0555 6.24846 15.9027 6.04745 15.6232C5.66133 15.0864 5.2452 14.5711 4.86238 14.032C4.80117 13.9458 4.79689 13.7444 4.85695 13.6639C4.95397 13.5339 5.1132 13.581 5.21459 13.7105C5.53279 14.117 5.84624 14.5271 6.1622 14.9353C6.30303 15.1172 6.44173 15.3011 6.5902 15.4766C6.62172 15.5139 6.69139 15.5354 6.74376 15.5359C7.20914 15.5404 7.67458 15.5385 8.1591 15.5385ZM9.0169 15.4956C8.74667 15.5595 8.63628 15.7357 8.78521 15.8915C8.85373 15.9632 8.99418 16.0085 9.09269 15.9955C9.16867 15.9854 9.30009 15.8372 9.28495 15.7999C9.23853 15.6857 9.1334 15.5953 9.0169 15.4956Z" fill="white"/>
<path d="M14.7124 2.44658C14.4607 1.70847 13.9944 1.19814 13.2602 0.958462C12.6249 0.751091 12.0263 0.808983 11.4991 1.25103C11.4449 1.29648 11.419 1.39221 11.4076 1.46873C11.3828 1.63458 11.3995 1.81015 11.3522 1.96767C11.3272 2.05117 11.2032 2.16089 11.1251 2.15993C10.9969 2.15836 10.8845 2.06684 10.8878 1.90078C10.8918 1.70039 10.8786 1.49909 10.8936 1.29975C10.8998 1.21701 10.9416 1.12135 10.9982 1.06041C11.5417 0.475505 12.209 0.294719 12.9951 0.404048C13.5797 0.485339 14.0787 0.727463 14.4822 1.12425C14.8911 1.52631 15.1798 2.02038 15.2299 2.61878C15.2397 2.73629 15.2664 2.8524 15.2885 2.98954C16.3969 3.08408 17.3502 3.48266 17.9022 4.52881C18.4455 5.55822 18.2948 6.56405 17.7273 7.53131C18.2994 7.56501 18.7168 7.83299 19.0679 8.25874C19.3757 8.63205 19.5948 9.03747 19.6674 9.51376C19.7401 9.99112 19.7142 10.4615 19.5307 10.9181C19.2716 11.5629 18.8641 12.0906 18.3205 12.5205C18.2777 12.5543 18.2585 12.6719 18.2823 12.7275C18.4783 13.1857 18.5846 13.6602 18.5342 14.1571C18.4812 14.6784 18.2804 15.1428 17.9466 15.5514C17.5513 16.0353 17.046 16.3452 16.4551 16.5263C16.2487 16.5896 16.3336 16.7848 16.3145 16.9023C16.2129 17.5296 15.971 18.0776 15.5468 18.5541C14.9992 19.1692 14.3214 19.4945 13.5047 19.5829C12.7205 19.6677 11.9964 19.5378 11.3327 19.1058C11.0721 18.9362 10.9036 18.7336 10.9236 18.3809C10.9543 17.8385 10.9298 17.2931 10.9331 16.749C10.9339 16.6267 10.9249 16.5504 10.7729 16.5068C10.5115 16.432 10.3663 16.2238 10.3324 15.9559C10.2896 15.6181 10.3768 15.3274 10.7007 15.1585C10.9662 15.0201 11.2316 15.0319 11.4966 15.1778C11.949 15.4269 11.9561 16.2166 11.5182 16.4426C11.4596 16.4729 11.4106 16.5806 11.4093 16.6534C11.4 17.1616 11.4425 17.6738 11.3918 18.1771C11.3539 18.5541 11.5633 18.7207 11.8215 18.8358C12.6942 19.2251 13.5805 19.2377 14.4421 18.8016C15.1609 18.4377 15.5951 17.833 15.7835 17.0557C15.8358 16.84 15.8588 16.6144 15.8685 16.3922C15.8761 16.218 15.9672 16.137 16.1129 16.1051C16.6687 15.9835 17.138 15.7154 17.5161 15.2912C18.0755 14.6637 18.2195 13.8402 17.8807 13.0619C17.8366 12.9605 17.7768 12.866 17.7272 12.7668C17.5891 12.4909 17.6035 12.4799 17.8266 12.2702C18.1367 11.979 18.4541 11.6902 18.725 11.3643C18.9813 11.056 19.1511 10.6887 19.1901 10.2534C18.8199 10.2534 18.4634 10.2497 18.1071 10.2581C18.0614 10.2592 18.004 10.315 17.9744 10.3601C17.6812 10.8075 17.083 10.762 16.8285 10.4642C16.6482 10.2532 16.6192 10.0301 16.706 9.78985C16.7977 9.53615 16.9865 9.37715 17.2636 9.35243C17.5399 9.32778 17.7741 9.40467 17.9396 9.64837C17.9708 9.69441 18.0483 9.73267 18.1052 9.73386C18.4699 9.74148 18.8349 9.73775 19.2009 9.73775C19.1368 9.05967 18.7784 8.56681 18.2492 8.18651C17.8937 7.93106 17.3552 7.95872 17.0193 8.22359C16.9549 8.27437 16.8757 8.30599 16.8063 8.351C16.6886 8.42738 16.5774 8.4146 16.4923 8.31022C16.4016 8.19911 16.4104 8.07684 16.5066 7.96788C16.5337 7.93711 16.5695 7.91235 16.6048 7.89057C17.2946 7.46535 17.648 6.84356 17.7242 6.04081C17.7943 5.30263 17.5488 4.67767 17.0299 4.18358C16.5603 3.73648 15.9775 3.49302 15.3099 3.50706C15.2311 3.50871 15.1523 3.50648 15.0736 3.50744C14.8901 3.50969 14.7946 3.4481 14.7926 3.23624C14.7903 2.9789 14.7416 2.72199 14.7124 2.44658ZM11.2762 15.9885C11.4011 15.8754 11.3993 15.7654 11.278 15.6472C11.1617 15.534 11.0486 15.5077 10.9148 15.6183C10.7937 15.7184 10.7525 15.8373 10.8484 15.9653C10.9589 16.1128 11.0997 16.1511 11.2762 15.9885ZM17.2032 9.89157C17.1168 10.0338 17.1408 10.1554 17.3022 10.2024C17.3636 10.2203 17.4724 10.1752 17.5163 10.1227C17.5528 10.0789 17.5487 9.92971 17.5231 9.91862C17.4346 9.88032 17.3287 9.88202 17.2032 9.89157Z" fill="white"/>
<path d="M11.3616 13.6484C11.3616 13.5136 11.3616 13.3999 11.3616 13.2612C11.1991 13.2612 11.0444 13.2612 10.8896 13.2612C10.7402 13.2612 10.5907 13.2612 10.4163 13.2612C10.4163 13.5317 10.4077 13.794 10.4194 14.0555C10.427 14.2272 10.3344 14.2816 10.1936 14.2908C10.0325 14.3014 9.94471 14.2202 9.94398 14.0558C9.94285 13.799 9.94368 13.5422 9.94368 13.2734C9.64477 13.2734 9.35521 13.2734 9.04132 13.2734C9.04132 13.5255 9.03697 13.7805 9.04291 14.0352C9.04661 14.1942 9.00753 14.3024 8.82158 14.2926C8.65028 14.2835 8.56681 14.1954 8.56816 14.0228C8.57011 13.774 8.56866 13.5253 8.56866 13.2788C7.50895 13.1688 6.95642 12.6591 6.93121 11.7573C6.67043 11.7573 6.4077 11.7489 6.14581 11.7601C5.96291 11.7679 5.90278 11.6679 5.90799 11.5177C5.91295 11.3742 5.99757 11.2855 6.15131 11.2849C6.39286 11.2839 6.63441 11.2846 6.88424 11.2846C6.88424 10.9926 6.88424 10.7175 6.88424 10.4252C6.6419 10.4252 6.40687 10.4144 6.17336 10.4287C5.99024 10.4399 5.90336 10.3628 5.9072 10.1916C5.91109 10.0179 6.02057 9.94906 6.18829 9.95169C6.41601 9.95526 6.64382 9.95258 6.88213 9.95258C6.88213 9.65066 6.88213 9.36117 6.88213 9.05023C6.63252 9.05023 6.38397 9.04178 6.13632 9.0531C5.96135 9.0611 5.91325 8.96082 5.90664 8.8224C5.89925 8.66751 5.99765 8.58594 6.13944 8.58043C6.39624 8.57044 6.6537 8.5776 6.90884 8.5776C7.09472 7.77723 7.52547 7.23935 8.56866 7.18614C8.56866 6.9385 8.57009 6.68958 8.56817 6.44069C8.56684 6.2679 8.65091 6.18022 8.82188 6.1712C9.00796 6.16139 9.04666 6.27008 9.04289 6.42883C9.03696 6.67835 9.04132 6.92812 9.04132 7.19015C9.33968 7.19015 9.62925 7.19015 9.94366 7.19015C9.94366 6.94597 9.94696 6.69825 9.94254 6.45067C9.9394 6.27468 10.0024 6.17397 10.194 6.16954C10.3984 6.1648 10.422 6.28563 10.4179 6.44749C10.4118 6.6901 10.4163 6.93299 10.4163 7.18915C10.7269 7.18915 11.0309 7.18915 11.3616 7.18915C11.3616 6.94846 11.3637 6.70095 11.3609 6.45349C11.3589 6.27325 11.4396 6.17725 11.6235 6.1709C11.8168 6.16422 11.8385 6.2852 11.8356 6.4375C11.8308 6.68661 11.8343 6.93587 11.8343 7.19675C12.2478 7.20142 12.6116 7.31481 12.9181 7.57842C13.2204 7.83844 13.3946 8.16886 13.4358 8.57758C13.6634 8.57758 13.8845 8.57866 14.1055 8.57722C14.2672 8.57617 14.3611 8.65631 14.367 8.81489C14.3731 8.97718 14.2788 9.05197 14.1183 9.05065C13.911 9.04894 13.7037 9.05023 13.4818 9.05023C13.4818 9.34386 13.4818 9.63357 13.4818 9.95259C13.6754 9.95259 13.8797 9.94773 14.0838 9.9539C14.3062 9.96063 14.4313 10.1206 14.3436 10.2943C14.3137 10.3534 14.2265 10.4148 14.1617 10.4193C13.941 10.4347 13.7187 10.4252 13.482 10.4252C13.482 10.7039 13.482 10.9794 13.482 11.2846C13.6319 11.2846 13.7931 11.2846 13.9542 11.2846C14.2649 11.2846 14.3683 11.3434 14.3694 11.5208C14.3706 11.7125 14.2907 11.7573 13.9475 11.7573C13.7975 11.7573 13.6475 11.7573 13.4768 11.7573C13.4322 12.1804 13.2947 12.5741 12.9756 12.859C12.6639 13.1373 12.2919 13.3095 11.8343 13.2533C11.8343 13.5368 11.8259 13.8 11.8372 14.0624C11.8449 14.2392 11.7349 14.3064 11.6068 14.2819C11.5154 14.2644 11.4009 14.1628 11.3718 14.0741C11.3315 13.9513 11.3617 13.8054 11.3616 13.6484ZM10.0941 7.67524C9.48293 7.68954 8.86897 7.67269 8.26161 7.72817C7.78817 7.77141 7.40856 8.209 7.40853 8.70383C7.40845 9.71967 7.40623 10.7355 7.40938 11.7513C7.4112 12.3406 7.88129 12.7729 8.42803 12.7824C9.59375 12.8025 10.7601 12.7918 11.9261 12.786C12.1901 12.7847 12.4179 12.6778 12.6214 12.5006C12.8986 12.2591 12.9878 11.944 12.9913 11.6024C13.0005 10.694 12.9974 9.78534 12.9914 8.87685C12.9905 8.73271 12.9682 8.58283 12.924 8.4459C12.7571 7.92971 12.3587 7.69249 11.8324 7.6786C11.2676 7.66369 10.7022 7.67524 10.0941 7.67524Z" fill="white"/>
<path d="M15.0035 14.4099C14.6299 14.8983 14.2691 15.3767 13.9037 15.8516C13.7971 15.9902 13.6722 16.0773 13.4712 16.0603C13.1868 16.0362 12.8987 16.0508 12.6124 16.0554C12.4443 16.0581 12.3901 15.9758 12.3901 15.8182C12.3901 15.661 12.4431 15.575 12.6116 15.5806C12.7475 15.5851 12.8894 15.5567 13.0187 15.5862C13.4031 15.6737 13.6047 15.4482 13.8031 15.1802C14.2382 14.5925 14.6821 14.0114 15.1264 13.4306C15.1886 13.3493 15.2177 13.3019 15.1542 13.1898C14.8869 12.7186 15.2224 12.1518 15.6842 12.0913C16.0301 12.046 16.2769 12.1379 16.4763 12.4092C16.695 12.7068 16.6377 13.0147 16.4539 13.2812C16.3621 13.4143 16.1483 13.5607 16.0084 13.5441C15.6637 13.5032 15.5215 13.7133 15.3589 13.9274C15.2413 14.0824 15.1291 14.2414 15.0035 14.4099ZM15.7775 13.0892C15.9627 13.0843 16.1305 12.9517 16.1307 12.81C16.1309 12.6747 15.9877 12.5513 15.8195 12.5808C15.7312 12.5963 15.6144 12.6679 15.5831 12.7441C15.5239 12.8884 15.5998 13.0142 15.7775 13.0892Z" fill="white"/>
<path d="M13.4985 4.25174C13.8065 4.76158 14.1049 5.25799 14.4031 5.75458C14.4493 5.83164 14.493 5.91025 14.54 5.98687C14.6311 6.13547 14.5571 6.26098 14.4423 6.32355C14.3322 6.38356 14.1955 6.36591 14.1118 6.22799C13.8432 5.78543 13.5701 5.34559 13.3005 4.90369C13.2468 4.81575 13.2184 4.70371 13.1463 4.63779C13.0466 4.54667 12.9251 4.4624 12.798 4.42168C12.4508 4.31042 12.0974 4.2169 11.7428 4.13176C11.6573 4.11123 11.5383 4.1211 11.4675 4.16725C11.189 4.34887 10.9175 4.30601 10.6303 4.19784C10.3586 4.09547 10.2129 3.68468 10.2478 3.49165C10.318 3.10289 10.4698 2.89961 10.8058 2.82676C11.3274 2.71369 11.7446 2.9812 11.7974 3.53183C11.8025 3.5855 11.8897 3.65692 11.9521 3.67535C12.3678 3.79827 12.7898 3.90064 13.2037 4.02951C13.3101 4.06265 13.3944 4.16682 13.4985 4.25174ZM11.2734 3.65613C11.3415 3.50471 11.2736 3.39251 11.1504 3.32197C11.0065 3.23959 10.8647 3.2846 10.7863 3.42301C10.7128 3.55257 10.7423 3.69652 10.8801 3.77046C11.0158 3.84327 11.1597 3.84676 11.2734 3.65613Z" fill="white"/>
<path d="M5.53607 7.84107C5.02 7.96444 4.70289 7.90237 4.50029 7.47696C4.28354 7.02182 4.55856 6.44365 5.11955 6.42268C5.19503 6.41986 5.29467 6.34676 5.33673 6.27788C5.76108 5.58297 6.17085 4.87911 6.59893 4.18655C6.65702 4.09256 6.78505 4.02578 6.89496 3.98321C7.11261 3.89892 7.33845 3.83374 7.56419 3.77288C7.81815 3.70442 7.95628 3.81029 7.91716 4.0513C7.90602 4.1199 7.82409 4.2046 7.75516 4.23093C7.56335 4.30418 7.35798 4.34153 7.16485 4.41193C7.08008 4.44283 6.98641 4.50369 6.9404 4.57797C6.54766 5.2119 6.16335 5.85109 5.78276 6.49241C5.75658 6.53654 5.75511 6.63339 5.78528 6.66701C6.08607 7.00221 5.99596 7.61601 5.53607 7.84107ZM5.26803 6.90182C5.02768 6.90921 4.89481 7.01723 4.91659 7.18752C4.9354 7.33455 5.08924 7.45926 5.23579 7.40993C5.32725 7.37914 5.42943 7.29269 5.46575 7.20572C5.52276 7.06922 5.4247 6.96875 5.26803 6.90182Z" fill="white"/>
<path d="M2.16692 10.2534C1.94968 10.2393 1.7512 10.2388 1.55963 10.2021C1.50764 10.1922 1.44234 10.0718 1.4449 10.0045C1.44779 9.92817 1.50502 9.83602 1.56695 9.78547C1.6184 9.74347 1.7107 9.74101 1.78523 9.73967C2.0569 9.7348 2.32932 9.72636 2.60028 9.74101C2.86099 9.75511 3.07738 9.72962 3.25947 9.49514C3.43568 9.26824 3.95646 9.30733 4.17737 9.5252C4.40086 9.74562 4.40683 10.2261 4.22792 10.4523C3.89273 10.8761 3.25983 10.7526 3.06982 10.3597C3.04497 10.3083 2.95703 10.2612 2.89602 10.2581C2.66061 10.2464 2.42427 10.2534 2.16692 10.2534ZM3.68864 9.82379C3.52519 9.8233 3.48094 9.92661 3.50137 10.0615C3.52065 10.1888 3.62073 10.2356 3.73481 10.2051C3.79177 10.1898 3.88376 10.1053 3.8755 10.0819C3.84308 9.98986 3.77709 9.90966 3.68864 9.82379Z" fill="white"/>
<path d="M14.3892 6.65201C14.7139 6.48576 15.0166 6.44204 15.3216 6.66746C15.5569 6.84138 15.6953 7.2111 15.6081 7.48572C15.5196 7.76426 15.2132 8.00784 14.9332 8.01868C14.519 8.03472 14.1482 7.84591 14.077 7.32056C14.0423 7.06373 14.1675 6.83157 14.3892 6.65201ZM14.7386 7.03241C14.5741 7.11913 14.5261 7.25454 14.6306 7.40379C14.7005 7.50351 14.8017 7.59323 14.9566 7.50771C15.0952 7.43119 15.2047 7.32602 15.1243 7.17936C15.0637 7.06882 14.9561 6.92005 14.7386 7.03241Z" fill="white"/>
<path d="M3.4981 12.7864C3.49857 12.3675 3.64957 12.1693 4.04996 12.0426C4.33526 11.9524 4.71653 12.0762 4.87251 12.3097C5.06136 12.5924 5.05111 13.0121 4.8492 13.2639C4.67454 13.4817 4.28593 13.5785 3.9867 13.4754C3.70738 13.3792 3.4718 13.1242 3.4981 12.7864ZM4.52929 12.8006C4.47408 12.7109 4.43734 12.5979 4.35972 12.5365C4.21075 12.4188 4.1006 12.5394 4.01099 12.6467C3.92164 12.7537 3.96134 12.8521 4.05738 12.9402C4.23382 13.1019 4.32344 13.0832 4.52929 12.8006Z" fill="white"/>
<path d="M9.36018 2.78336C9.84264 3.06579 9.97125 3.53434 9.68188 3.94703C9.5072 4.19616 9.18276 4.30169 8.87456 4.21966C8.50083 4.1202 8.33271 3.88188 8.306 3.54567C8.25831 2.9452 8.83259 2.59927 9.36018 2.78336ZM8.78394 3.55357C8.84395 3.6102 8.90247 3.66851 8.96429 3.7231C9.08966 3.8338 9.20279 3.73634 9.27344 3.66419C9.32829 3.60817 9.35952 3.45616 9.32191 3.39938C9.26389 3.31179 9.13089 3.21039 9.04259 3.2211C8.90719 3.23753 8.76374 3.32855 8.78394 3.55357Z" fill="white"/>
<path d="M9.43827 10.6727L9.04227 9.62065C9.01027 9.53932 8.9776 9.43599 8.94427 9.31065C8.9296 9.37332 8.9136 9.43132 8.89627 9.48465C8.87893 9.53665 8.86293 9.58265 8.84827 9.62265L8.45227 10.6727H9.43827ZM10.3243 11.7527H9.96227C9.92093 11.7527 9.8876 11.7427 9.86227 11.7227C9.83693 11.7013 9.8176 11.6753 9.80427 11.6447L9.56427 11.0087H8.32427L8.08427 11.6447C8.0736 11.6713 8.05493 11.696 8.02827 11.7187C8.0016 11.7413 7.96827 11.7527 7.92827 11.7527H7.56627L8.70827 8.87265H9.18227L10.3243 11.7527ZM11.0504 11.7527H10.5804V8.87265H11.0504V11.7527ZM12.4817 11.4317C12.4944 11.4317 12.5054 11.4367 12.5147 11.4467L12.6077 11.5477C12.549 11.6183 12.477 11.673 12.3917 11.7117C12.3064 11.7497 12.2044 11.7687 12.0857 11.7687C11.9804 11.7687 11.885 11.7507 11.7997 11.7147C11.715 11.678 11.6427 11.6273 11.5827 11.5627C11.5227 11.4973 11.4764 11.4197 11.4437 11.3297C11.4117 11.2397 11.3957 11.1407 11.3957 11.0327C11.3957 10.9247 11.4127 10.8257 11.4467 10.7357C11.4814 10.645 11.5297 10.5673 11.5917 10.5027C11.6544 10.4373 11.729 10.3867 11.8157 10.3507C11.903 10.3147 11.999 10.2967 12.1037 10.2967C12.2077 10.2967 12.2994 10.3137 12.3787 10.3477C12.4587 10.381 12.528 10.4257 12.5867 10.4817L12.5097 10.5907C12.5044 10.598 12.498 10.6043 12.4907 10.6097C12.4834 10.615 12.4734 10.6177 12.4607 10.6177C12.4474 10.6177 12.432 10.6117 12.4147 10.5997C12.398 10.587 12.3764 10.5733 12.3497 10.5587C12.3237 10.5433 12.2907 10.5297 12.2507 10.5177C12.2114 10.505 12.162 10.4987 12.1027 10.4987C12.034 10.4987 11.971 10.5107 11.9137 10.5347C11.8564 10.5587 11.807 10.5937 11.7657 10.6397C11.7244 10.6857 11.692 10.7417 11.6687 10.8077C11.646 10.8737 11.6347 10.9487 11.6347 11.0327C11.6347 11.1173 11.6467 11.193 11.6707 11.2597C11.6947 11.3257 11.7277 11.3817 11.7697 11.4277C11.8117 11.473 11.861 11.5077 11.9177 11.5317C11.9744 11.5557 12.0354 11.5677 12.1007 11.5677C12.1407 11.5677 12.1764 11.5657 12.2077 11.5617C12.2397 11.557 12.269 11.55 12.2957 11.5407C12.3224 11.5307 12.3474 11.5183 12.3707 11.5037C12.3947 11.489 12.4184 11.471 12.4417 11.4497C12.455 11.4377 12.4684 11.4317 12.4817 11.4317Z" fill="white"/>
</svg>
