<svg width="21" height="19" viewBox="0 0 21 19" fill="none" xmlns="http://www.w3.org/2000/svg">
<path d="M20.3707 11.0533C19.9301 11.2737 19.4437 11.1936 18.9843 11.2988C17.9908 11.5261 17.0871 11.9082 16.3188 12.5993C15.4399 13.3899 14.9594 14.3881 14.7553 15.5274C14.664 16.0367 14.641 16.5585 14.5947 17.0753C14.5764 17.2786 14.4684 17.3943 14.265 17.3957C14.0518 17.3972 13.9341 17.2811 13.9293 17.0636C13.9105 16.2287 13.8188 15.4063 13.541 14.6113C13.2558 13.7955 12.8026 13.0874 12.1523 12.524C11.4624 11.9264 10.6557 11.5322 9.75966 11.3504C9.34136 11.2656 8.91165 11.2331 8.48569 11.1914C8.26118 11.1695 8.11058 11.0337 8.11232 10.8131C8.11403 10.5966 8.24204 10.4993 8.49207 10.4836C9.73238 10.4062 10.8818 10.0762 11.891 9.31014C12.8607 8.57415 13.4096 7.58685 13.6919 6.43146C13.8322 5.85709 13.9013 5.27074 13.8901 4.67728C13.8869 4.50734 13.9221 4.35439 14.0968 4.28041C14.3323 4.18063 14.5961 4.35956 14.5897 4.63142C14.5768 5.18751 14.6335 5.73534 14.7496 6.27747C14.9354 7.14435 15.2844 7.92958 15.8604 8.61732C16.5122 9.39539 17.3449 9.87755 18.2919 10.1831C18.7533 10.332 19.2271 10.4276 19.7164 10.4544C19.9311 10.4661 20.1717 10.4549 20.3604 10.616C20.3707 10.747 20.3707 10.8912 20.3707 11.0533ZM12.7558 12.1435C13.4436 12.8094 13.9324 13.6021 14.2404 14.5556C14.8737 12.6323 16.1712 11.4562 18.0193 10.8173C16.1735 10.1747 14.8667 9.00204 14.2407 7.07957C13.6097 8.9964 12.3062 10.172 10.5147 10.7988C10.9207 10.9998 11.3551 11.1853 11.7582 11.4237C12.1017 11.6268 12.4091 11.8909 12.7558 12.1435Z" fill="#7AA8CC"/>
<path d="M0.382812 14.8371C0.703046 14.6423 1.06995 14.7164 1.40826 14.6267C2.41809 14.359 3.14079 13.7802 3.47412 12.7669C3.60705 12.3628 3.66362 11.9453 3.66086 11.5206C3.65979 11.3568 3.73206 11.2407 3.88251 11.1992C4.03826 11.1562 4.20913 11.1675 4.28645 11.3352C4.34016 11.4518 4.36003 11.5926 4.3616 11.723C4.37005 12.4271 4.55504 13.0699 4.98633 13.635C5.32849 14.0833 5.78124 14.3778 6.31196 14.5364C6.61424 14.6267 6.93606 14.6544 7.25059 14.6998C7.40396 14.7219 7.53251 14.7599 7.61125 14.9108C7.68991 15.0615 7.64989 15.2239 7.54963 15.2979C7.42748 15.3879 7.24886 15.4275 7.09108 15.4388C6.33541 15.493 5.67484 15.7588 5.13675 16.2955C4.73704 16.6942 4.50888 17.1906 4.40816 17.7404C4.35872 18.0103 4.34393 18.2875 4.3282 18.5623C4.31433 18.8043 4.21756 18.9683 4.05222 18.9537C3.81278 18.9327 3.66285 18.8267 3.65869 18.5575C3.64759 17.8379 3.52269 17.1453 3.0782 16.5508C2.71425 16.064 2.24397 15.717 1.65225 15.5651C1.34554 15.4864 1.02527 15.4617 0.713267 15.4016C0.609631 15.3816 0.512654 15.3271 0.397723 15.288C0.382812 15.1434 0.382812 14.9993 0.382812 14.8371ZM2.41176 15.15C3.09628 15.5137 3.62047 16.0366 3.9645 16.7463C4.59059 15.7317 4.80331 15.5769 5.67666 15.0672C4.91605 14.7122 4.33355 14.1762 3.97448 13.3743C3.59976 14.1756 3.03437 14.7268 2.24617 15.0872C2.30739 15.1078 2.3472 15.1213 2.41176 15.15Z" fill="#7AA8CC"/>
<path d="M6.74237 0.00640777C7.07905 -0.0317578 7.20918 0.0967549 7.21117 0.494665C7.21355 0.968257 7.29866 1.41863 7.48268 1.8566C7.7801 2.56443 8.29318 3.04929 9.00737 3.29515C9.37611 3.42209 9.77457 3.46615 10.162 3.5337C10.3431 3.56527 10.4968 3.71326 10.4934 3.89505C10.4901 4.07784 10.3374 4.23229 10.1474 4.23883C9.72271 4.25344 9.31385 4.33631 8.91994 4.49935C8.0538 4.85784 7.51263 5.49897 7.29805 6.40267C7.22035 6.72992 7.20593 7.07344 7.17798 7.41082C7.15931 7.63613 7.06191 7.75435 6.85526 7.75292C6.62682 7.75135 6.5139 7.63965 6.5117 7.4093C6.50504 6.71363 6.37946 6.04821 5.99032 5.45664C5.54555 4.78051 4.89034 4.43031 4.11441 4.28004C3.92691 4.24372 3.73584 4.22537 3.54612 4.20107C3.29451 4.16883 3.21505 4.06833 3.23222 3.79923C3.24232 3.64081 3.3736 3.54815 3.57315 3.53527C4.4019 3.4818 5.15218 3.23518 5.73586 2.61159C6.12575 2.19504 6.34799 1.69236 6.43109 1.13119C6.4714 0.858914 6.4682 0.579411 6.52025 0.310049C6.541 0.202676 6.65773 0.113849 6.74237 0.00640777ZM5.17886 3.92476C5.20376 3.93016 5.23166 3.93005 5.25312 3.94175C5.83181 4.25699 6.32007 4.67133 6.66316 5.24162C6.71964 5.33551 6.76262 5.43752 6.82827 5.56857C7.20657 4.77793 7.77738 4.23671 8.54306 3.86771C7.75666 3.5079 7.18733 2.96651 6.82704 2.17687C6.77566 2.27424 6.74823 2.34496 6.70526 2.40446C6.50756 2.67817 6.34107 2.988 6.09572 3.21014C5.81258 3.4665 5.45837 3.64431 5.13654 3.85853C5.13175 3.86171 5.14663 3.89445 5.17886 3.92476Z" fill="#7AA8CC"/>
</svg>
