<svg width="17" height="18" viewBox="0 0 17 18" fill="none" xmlns="http://www.w3.org/2000/svg">
<path d="M8.79397 0.5C4.32187 0.5 0.683401 4.31301 0.683401 8.99963C0.683401 10.8695 1.25185 12.6367 2.32879 14.1238C1.93975 15.1543 1.34621 16.0865 0.587484 16.8585C0.536511 16.9094 0.501312 16.9753 0.486443 17.0474C0.471573 17.1196 0.477717 17.1948 0.504081 17.2633C0.530444 17.3318 0.575813 17.3904 0.634314 17.4315C0.692815 17.4727 0.761756 17.4945 0.832212 17.4941H0.837149C2.21457 17.4725 3.56396 17.083 4.75773 16.3625C5.98479 17.1064 7.37708 17.4987 8.79467 17.5C13.2668 17.5 16.9052 13.687 16.9052 9.00037C16.9045 4.31301 13.2654 0.5 8.79397 0.5ZM8.79397 16.7602C7.43915 16.7602 6.1069 16.3647 4.9411 15.6168C4.88574 15.5811 4.82202 15.5622 4.75702 15.5622C4.69202 15.5622 4.6283 15.5811 4.57295 15.6168C3.69509 16.1791 2.71514 16.5439 1.69546 16.6877C2.28076 15.9402 2.74207 15.095 3.06015 14.1874C3.08097 14.1279 3.08679 14.0637 3.07702 14.0012C3.06726 13.9387 3.04226 13.8798 3.00443 13.8304C1.95404 12.4614 1.3837 10.7562 1.38867 8.99963C1.38867 4.72025 4.71047 1.2391 8.79397 1.2391C12.8775 1.2391 16.1993 4.72025 16.1993 8.99963C16.1993 13.279 12.8775 16.7602 8.79397 16.7602Z" fill="#7AA8CC"/>
<path d="M13.4478 6.35364H4.13828C4.04475 6.35364 3.95506 6.39257 3.88893 6.46188C3.8228 6.53118 3.78564 6.62518 3.78564 6.72319C3.78564 6.8212 3.8228 6.91519 3.88893 6.9845C3.95506 7.0538 4.04475 7.09274 4.13828 7.09274H13.4478C13.5413 7.09274 13.631 7.0538 13.6971 6.9845C13.7633 6.91519 13.8004 6.8212 13.8004 6.72319C13.8004 6.62518 13.7633 6.53118 13.6971 6.46188C13.631 6.39257 13.5413 6.35364 13.4478 6.35364ZM13.4478 8.95526H4.13828C4.04475 8.95526 3.95506 8.9942 3.88893 9.0635C3.8228 9.13281 3.78564 9.2268 3.78564 9.32481C3.78564 9.42282 3.8228 9.51682 3.88893 9.58612C3.95506 9.65543 4.04475 9.69436 4.13828 9.69436H13.4478C13.5413 9.69436 13.631 9.65543 13.6971 9.58612C13.7633 9.51682 13.8004 9.42282 13.8004 9.32481C13.8004 9.2268 13.7633 9.13281 13.6971 9.0635C13.631 8.9942 13.5413 8.95526 13.4478 8.95526ZM13.4478 11.5569H4.13828C4.04475 11.5569 3.95506 11.5958 3.88893 11.6651C3.8228 11.7344 3.78564 11.8284 3.78564 11.9264C3.78564 12.0244 3.8228 12.1184 3.88893 12.1877C3.95506 12.2571 4.04475 12.296 4.13828 12.296H13.4478C13.5413 12.296 13.631 12.2571 13.6971 12.1877C13.7633 12.1184 13.8004 12.0244 13.8004 11.9264C13.8004 11.8284 13.7633 11.7344 13.6971 11.6651C13.631 11.5958 13.5413 11.5569 13.4478 11.5569Z" fill="#7AA8CC"/>
</svg>
