<svg width="25" height="20" viewBox="0 0 25 20" fill="none" xmlns="http://www.w3.org/2000/svg">
<path d="M0.71875 17.376C0.71875 12.3281 0.71875 7.28022 0.73403 2.22421C0.864595 1.9829 0.953259 1.73121 1.10012 1.51998C1.5533 0.868189 2.17385 0.501142 2.98521 0.501112C9.51919 0.50087 16.0532 0.500944 22.5872 0.501362C22.6647 0.501367 22.7454 0.494316 22.8194 0.512252C23.7063 0.7273 24.3348 1.23444 24.6278 2.12C24.6376 2.14961 24.6875 2.16595 24.7188 2.18848C24.7188 7.23636 24.7188 12.2842 24.7035 17.3402C24.5729 17.5816 24.4842 17.8332 24.3374 18.0445C23.8842 18.6963 23.2636 19.0633 22.4523 19.0633C15.9183 19.0636 9.38433 19.0635 2.85034 19.0631C2.77277 19.0631 2.69208 19.0701 2.61811 19.0522C1.73121 18.8372 1.1027 18.33 0.809712 17.4445C0.799914 17.4148 0.749977 17.3985 0.71875 17.376ZM12.5078 4.9541C8.8011 4.9541 5.09439 4.9541 1.37501 4.9541C1.37501 5.01618 1.37488 5.05386 1.37503 5.09155C1.39063 9.03162 1.39951 12.9717 1.42976 16.9117C1.43389 17.4505 1.75449 17.8542 2.20882 18.1406C2.54266 18.351 2.92155 18.401 3.30004 18.4032C4.91664 18.4126 6.53334 18.4111 8.14998 18.4065C12.957 18.3929 17.7639 18.3782 22.5709 18.3564C22.9752 18.3546 23.3135 18.1431 23.5862 17.8623C23.949 17.4888 24.0585 17.0027 24.0593 16.5018C24.0652 12.7218 24.0626 8.94177 24.062 5.16177C24.062 5.09475 24.0551 5.02774 24.051 4.9541C20.207 4.9541 16.3808 4.9541 12.5078 4.9541ZM22.1105 1.15723C17.3391 1.15723 12.5678 1.15332 7.79638 1.15938C6.16038 1.16146 4.52418 1.17678 2.88858 1.21063C2.33751 1.22203 1.92521 1.53157 1.64002 1.99611C1.48741 2.24471 1.4094 2.51864 1.41376 2.81687C1.42097 3.30884 1.41572 3.801 1.41572 4.28479C8.95555 4.28479 16.5035 4.28479 24.0155 4.28479C24.0155 3.69879 24.0432 3.12425 24.0052 2.55409C23.9819 2.20498 23.7895 1.8909 23.5353 1.64649C23.1543 1.28015 22.666 1.17866 22.1105 1.15723Z" fill="white"/>
<path d="M6.85939 9.12596C10.1622 9.12596 13.4416 9.12596 16.75 9.12596C16.75 8.87977 16.771 8.6388 16.7451 8.40299C16.7066 8.05314 17.1732 7.58341 17.5338 7.6201C17.8198 7.6492 18.1137 7.65014 18.3995 7.61987C18.7607 7.58161 19.2398 8.05167 19.1927 8.42236C19.1645 8.64434 19.1875 8.87283 19.1875 9.12596C19.568 9.12596 19.9397 9.12596 20.3113 9.12596C20.4988 9.12596 20.6862 9.12586 20.8736 9.12598C21.1675 9.12617 21.2511 9.20046 21.25 9.46013C21.249 9.70388 21.1607 9.78205 20.885 9.78215C20.3306 9.78235 19.7761 9.78221 19.1875 9.78221C19.1875 9.98321 19.1875 10.1823 19.1875 10.3814C19.1875 10.9388 18.8475 11.2876 18.2958 11.2802C17.9646 11.2757 17.6281 11.2831 17.3043 11.2265C17 11.1733 16.7531 10.8021 16.7502 10.4965C16.7481 10.27 16.7482 10.0435 16.7464 9.81708C16.7464 9.81182 16.7356 9.80665 16.7086 9.78221C16.6474 9.78221 16.5635 9.78221 16.4796 9.78221C12.9574 9.78221 9.43518 9.78224 5.91295 9.78215C5.63658 9.78215 5.54811 9.70419 5.54689 9.46117C5.54558 9.20068 5.62892 9.12613 5.92221 9.12599C6.22679 9.12585 6.53137 9.12596 6.85939 9.12596ZM17.5881 10.5786C17.7471 10.5944 17.9059 10.6208 18.0651 10.6238C18.4132 10.6304 18.5295 10.5098 18.5309 10.1565C18.5325 9.76631 18.5262 9.37601 18.5324 8.98589C18.5437 8.27679 18.5044 8.26782 17.8103 8.28471C17.4931 8.29243 17.4151 8.3524 17.4086 8.6942C17.3994 9.1857 17.3962 9.67785 17.4129 10.1689C17.4175 10.3014 17.5036 10.4311 17.5881 10.5786Z" fill="white"/>
<path d="M14.0781 14.2355C12.7433 14.2355 11.432 14.2355 10.0938 14.2355C10.0938 14.437 10.0735 14.6319 10.0977 14.8212C10.1602 15.3093 9.65931 15.7972 9.1865 15.7403C8.95549 15.7125 8.71617 15.7151 8.48447 15.7399C8.04207 15.7873 7.55494 15.3031 7.60555 14.8595C7.62823 14.6607 7.60939 14.4572 7.60939 14.2355C7.02534 14.2355 6.45749 14.2358 5.88965 14.2353C5.64053 14.2351 5.54806 14.1477 5.54689 13.9144C5.54562 13.6608 5.63034 13.5795 5.89896 13.5794C6.46032 13.579 7.02168 13.5792 7.60939 13.5792C7.60939 13.3772 7.62961 13.1822 7.60544 12.9929C7.54326 12.5059 8.04307 12.0174 8.51733 12.0744C8.74835 12.1022 8.98764 12.0996 9.21936 12.0749C9.66072 12.0278 10.1485 12.5112 10.0976 12.9559C10.0749 13.1547 10.0938 13.3581 10.0938 13.5792C10.1939 13.5792 10.2775 13.5792 10.3612 13.5792C13.8687 13.5792 17.3763 13.5792 20.8838 13.5793C21.1603 13.5793 21.2488 13.6572 21.25 13.9003C21.2513 14.1608 21.168 14.2354 20.8745 14.2355C18.6169 14.2355 16.3592 14.2355 14.0781 14.2355ZM9.34125 12.8031C9.08997 12.7806 8.83889 12.7435 8.58735 12.7401C8.37108 12.7372 8.26591 12.8748 8.26577 13.0895C8.26543 13.6362 8.26138 14.1829 8.26842 14.7294C8.27039 14.882 8.30898 15.0438 8.50276 15.0562C8.73352 15.0711 8.96784 15.0807 9.19691 15.0569C9.39997 15.0358 9.43863 14.8651 9.43789 14.687C9.43655 14.3668 9.44626 14.0463 9.43497 13.7265C9.42442 13.4279 9.39259 13.1301 9.34125 12.8031Z" fill="white"/>
<path d="M2.07827 8.23526C2.07827 7.54887 2.07776 6.88592 2.07853 6.22297C2.07881 5.97623 2.16547 5.89093 2.40973 5.89151C2.64544 5.89208 2.73426 5.98335 2.73433 6.22965C2.73472 7.63355 2.73479 9.03745 2.73423 10.4413C2.73414 10.6615 2.64153 10.763 2.44352 10.7665C2.19367 10.7709 2.08044 10.6736 2.0794 10.4347C2.07626 9.7094 2.07827 8.98405 2.07827 8.23526Z" fill="white"/>
<path d="M2.73431 12.9228C2.73431 13.2818 2.73508 13.6173 2.73406 13.9528C2.73331 14.1971 2.64501 14.2831 2.4004 14.2821C2.17643 14.2812 2.07882 14.1871 2.07845 13.9647C2.07736 13.317 2.07737 12.6693 2.07844 12.0216C2.07881 11.7993 2.17648 11.705 2.40024 11.704C2.64482 11.703 2.73318 11.7891 2.73407 12.0332C2.73511 12.3219 2.73431 12.6106 2.73431 12.9228Z" fill="white"/>
<path d="M6.1568 2.62119C6.1568 3.26799 5.92187 3.60759 5.38239 3.78845C4.61946 4.04422 3.91579 3.37933 3.94212 2.76307C3.96281 2.27881 4.14497 1.92098 4.57204 1.74726C5.01934 1.56531 5.48103 1.627 5.85081 1.96457C6.02524 2.12381 6.17143 2.33217 6.1568 2.62119ZM4.65684 2.84832C4.75476 2.94086 4.83819 3.07655 4.95412 3.11549C5.11465 3.16943 5.32214 3.13714 5.38857 2.9563C5.43624 2.82651 5.42838 2.63837 5.36694 2.5154C5.27585 2.33309 5.05319 2.33645 4.89162 2.38802C4.71748 2.44362 4.61426 2.60126 4.65684 2.84832Z" fill="white"/>
<path d="M7.04717 2.34689C7.32978 1.60543 8.17574 1.52923 8.67838 1.81214C9.06115 2.02758 9.27894 2.59991 9.14479 3.06247C9.00619 3.54033 8.54732 3.84563 8.16594 3.8343C7.53913 3.81566 7.17691 3.61299 7.0436 3.08639C6.98657 2.8611 7.04215 2.6073 7.04717 2.34689ZM7.94193 3.12536C7.99635 3.12557 8.05117 3.12158 8.10512 3.12677C8.2937 3.14489 8.39919 3.01763 8.4454 2.87707C8.5076 2.68783 8.44929 2.48132 8.25799 2.4089C8.13942 2.36402 7.94366 2.39117 7.83992 2.46576C7.60502 2.63467 7.64077 2.85321 7.94193 3.12536Z" fill="white"/>
<path d="M12.1565 2.3467C12.3929 3.14185 11.9015 3.8345 11.1546 3.84008C10.5813 3.84437 10.2156 3.50942 10.1087 3.18622C9.96351 2.74752 9.98842 2.22992 10.4306 1.87424C10.832 1.5513 11.7569 1.55433 12.0679 2.16913C12.0951 2.22284 12.1265 2.27442 12.1565 2.3467ZM11.325 3.08733C11.3419 3.07135 11.3593 3.05586 11.3756 3.03931C11.5624 2.84972 11.5563 2.61812 11.36 2.44481C11.2141 2.31596 10.9595 2.35172 10.8136 2.52157C10.6827 2.67397 10.7238 2.96359 10.9245 3.07467C11.0262 3.13093 11.1731 3.10541 11.325 3.08733Z" fill="white"/>
</svg>
