<svg width="23" height="22" viewBox="0 0 23 22" fill="none" xmlns="http://www.w3.org/2000/svg">
<path d="M22.1221 6.90566C22.0172 6.95445 21.9132 7.00263 21.8071 7.00787C21.5509 7.02053 21.4776 6.94208 21.4776 6.69009C21.4773 5.68733 21.487 4.68443 21.4735 3.68185C21.4666 3.17234 21.4058 2.6631 21.1238 2.21856C20.6895 1.53408 20.0928 1.03656 19.2639 1.00648C17.7648 0.952088 16.2632 0.95812 14.7626 0.954039C12.2414 0.947182 9.72014 0.947869 7.19891 0.954045C6.00933 0.95696 5.0357 1.66037 4.70421 2.80392C4.60445 3.14808 4.63403 3.52974 4.60246 3.91749C4.72061 3.91749 4.79704 3.91749 4.87347 3.91749C8.28288 3.91749 11.6923 3.91002 15.1017 3.92294C15.916 3.92603 16.6544 4.17421 17.2689 4.75267C17.9431 5.38741 18.3024 6.14173 18.2995 7.07497C18.2925 9.27387 18.2972 11.4728 18.2972 13.6717C18.2972 13.7497 18.2972 13.8277 18.2972 13.9044C19.6439 14.0797 20.9185 13.5113 21.3576 12.0884C21.4429 11.8122 21.4682 11.5091 21.4722 11.2177C21.4858 10.2295 21.4792 9.24093 21.4755 8.25251C21.475 8.10476 21.4687 7.9367 21.6227 7.88946C21.7768 7.84219 21.9632 7.82074 22.1078 7.96989C22.1221 9.34767 22.1221 10.7381 22.1221 12.1487C22.0935 12.1897 22.0462 12.2055 22.0391 12.2321C21.8098 13.0945 21.3024 13.7414 20.5341 14.1888C20.119 14.4305 19.6735 14.5605 19.1921 14.5775C18.9026 14.5877 18.6138 14.6175 18.2972 14.6406C18.2972 14.7941 18.2943 14.963 18.2977 15.1318C18.3146 15.9819 17.9882 16.6851 17.4095 17.2952C16.9821 17.7456 16.463 18.022 15.8726 18.1697C15.6308 18.2302 15.3758 18.2621 15.1267 18.2626C14.8883 18.2631 14.7742 18.4208 14.6387 18.5589C14.158 19.0488 13.689 19.5506 13.2014 20.0335C12.568 20.6608 11.8381 21.1682 11.0987 21.6593C10.9011 21.7906 10.6778 21.8967 10.4518 21.9687C10.0699 22.0902 9.60039 21.7153 9.56788 21.3168C9.5465 21.0547 9.64639 20.834 9.75292 20.6202C10.0902 19.9432 10.3024 19.2234 10.5124 18.5022C10.5637 18.326 10.4688 18.2302 10.2474 18.2293C9.67441 18.2268 9.1014 18.2285 8.5284 18.2285C8.39231 18.2285 8.25623 18.2289 8.12014 18.2284C7.91554 18.2276 7.76153 18.0828 7.76863 17.8987C7.77571 17.7153 7.91797 17.5842 8.11344 17.584C8.87266 17.5835 9.63276 17.6061 10.3908 17.5762C10.923 17.5552 11.3216 18.0604 11.1868 18.6188C10.9724 19.5073 10.6647 20.3602 10.2654 21.1813C10.2569 21.1989 10.2623 21.2233 10.2578 21.308C10.4041 21.2417 10.5385 21.2059 10.6428 21.1292C11.2264 20.7001 11.8172 20.2789 12.3767 19.8199C12.8203 19.456 13.2301 19.0494 13.64 18.6467C13.876 18.4148 14.0767 18.1475 14.3036 17.9058C14.5024 17.6941 14.751 17.5916 15.0477 17.5813C16.1396 17.5433 16.955 17.0523 17.4232 16.0541C17.5346 15.8166 17.6006 15.5342 17.6018 15.272C17.6144 12.4931 17.6097 9.71399 17.6095 6.93494C17.6094 6.4023 17.3893 5.95116 17.0666 5.54851C16.6994 5.09051 16.2241 4.79334 15.6438 4.67901C15.4729 4.64534 15.2986 4.60835 15.1259 4.60818C11.1793 4.60419 7.23277 4.59412 3.28632 4.61189C2.12159 4.61713 1.18809 5.36428 0.862544 6.48072C0.785242 6.74582 0.76791 7.03593 0.767143 7.31465C0.760201 9.83583 0.760897 12.357 0.764298 14.8782C0.76544 15.7248 1.04206 16.4594 1.71357 17.0048C2.09042 17.3109 2.51999 17.5283 3.01718 17.538C4.21672 17.5612 5.41652 17.5712 6.61627 17.5819C6.79389 17.5835 6.92413 17.6392 6.94811 17.8244C6.96825 17.9799 6.96302 18.1426 6.77542 18.2091C6.72404 18.2274 6.66451 18.2277 6.60872 18.2277C5.37677 18.2287 4.1446 18.2423 2.91298 18.2221C2.3675 18.2132 1.87263 17.9883 1.43665 17.67C0.808539 17.2114 0.365721 16.6147 0.193028 15.84C0.189213 15.8229 0.163157 15.8108 0.132958 15.8091C0.118441 12.6837 0.118441 9.54553 0.132961 6.40001C0.166427 6.35758 0.193665 6.32464 0.20309 6.28721C0.381421 5.57896 0.779073 5.0115 1.34775 4.56979C1.95776 4.09599 2.671 3.91795 3.43447 3.91751C3.60274 3.91741 3.77102 3.91749 3.94394 3.91749C3.94394 3.5878 3.90338 3.28077 3.95189 2.98853C4.07504 2.24652 4.4065 1.61181 4.97497 1.09411C5.58985 0.534146 6.31625 0.273404 7.12176 0.270529C10.8935 0.257065 14.6653 0.261979 18.437 0.268313C18.8375 0.268986 19.2422 0.29487 19.6375 0.356636C20.266 0.454835 20.8029 0.770257 21.2382 1.22012C21.6299 1.62491 21.9328 2.09982 22.0408 2.67261C22.0443 2.69092 22.0939 2.70051 22.1221 2.71417C22.1221 4.10462 22.1221 5.49507 22.1221 6.90566Z" fill="white"/>
<path d="M4.44898 12.5986C3.7713 12.6236 3.24636 12.245 3.10495 11.6086C2.92304 10.7901 3.51358 10.071 4.28378 10.0547C4.94764 10.0407 5.41425 10.4174 5.58299 10.9795C5.77935 11.6337 5.35195 12.4085 4.69174 12.5551C4.61775 12.5715 4.54293 12.5842 4.44898 12.5986ZM4.37714 10.735C4.31992 10.7405 4.26078 10.7385 4.20579 10.7527C3.88853 10.8343 3.67837 11.2107 3.77957 11.5104C3.85972 11.7478 4.19629 11.9519 4.43966 11.9106C4.71311 11.8643 4.94032 11.5695 4.9315 11.2725C4.92333 10.9975 4.71601 10.7903 4.37714 10.735Z" fill="white"/>
<path d="M11.5845 11.8053C11.3039 12.4524 10.6571 12.7196 10.0441 12.5545C9.67225 12.4543 9.21584 12.0886 9.13103 11.5043C9.03478 10.8414 9.51672 10.2348 9.99442 10.1045C10.9826 9.83491 11.8556 10.6075 11.6374 11.567C11.6206 11.6409 11.6072 11.7155 11.5845 11.8053ZM10.9357 11.5597C11.0279 11.3657 10.995 11.1855 10.8856 11.0076C10.7563 10.7973 10.4945 10.6769 10.1903 10.7624C9.99841 10.8163 9.7678 11.1699 9.78904 11.3539C9.81942 11.6173 10.0447 11.859 10.3074 11.9102C10.5327 11.9541 10.7644 11.8283 10.9357 11.5597Z" fill="white"/>
<path d="M14.0056 10.1757C14.6717 10.4968 14.8815 11.3921 14.5177 11.9847C14.1059 12.6555 13.2382 12.7744 12.6532 12.3515C11.9489 11.8423 11.9664 10.6848 12.7435 10.2262C13.0588 10.0402 13.402 10.0169 13.7544 10.0971C13.8351 10.1155 13.9141 10.1411 14.0056 10.1757ZM12.9917 11.737C13.2096 11.8972 13.431 11.992 13.6961 11.828C13.9452 11.6738 14.0587 11.3797 13.9751 11.1302C13.8893 10.8739 13.5783 10.6804 13.2862 10.7516C12.9313 10.8382 12.6518 11.2691 12.9917 11.737Z" fill="white"/>
<path d="M6.40171 12.1559C5.8238 11.4559 6.05684 10.3253 7.05705 10.0838C7.83064 9.8971 8.51985 10.3304 8.6243 11.1285C8.71411 11.8148 8.41179 12.2709 7.85643 12.5122C7.46948 12.6803 6.81436 12.6445 6.40171 12.1559ZM6.82363 11.0923C6.82728 11.2472 6.80014 11.4109 6.84161 11.5549C6.90854 11.7874 7.24509 11.9581 7.47053 11.9098C7.72616 11.8552 7.98929 11.5427 7.98128 11.3033C7.97293 11.0538 7.71796 10.7885 7.46749 10.7486C7.17845 10.7027 6.98575 10.834 6.82363 11.0923Z" fill="white"/>
</svg>
