<svg width="26" height="20" viewBox="0 0 26 20" fill="none" xmlns="http://www.w3.org/2000/svg">
<path d="M25.9418 15.6019C25.9073 15.6477 25.8593 15.6626 25.8402 15.6946C25.5954 16.1054 25.2099 16.2562 24.7602 16.2573C22.7186 16.2625 20.677 16.2596 18.6353 16.2596C18.5557 16.2596 18.4761 16.2596 18.3851 16.2596C18.3851 16.5063 18.3851 16.7376 18.3851 16.992C19.0859 16.992 19.7829 17.0008 20.4795 16.9895C21.1654 16.9783 21.7329 17.4729 21.6965 18.2043C21.6807 18.5208 21.6821 18.8392 21.6976 19.1557C21.7096 19.399 21.6377 19.487 21.3562 19.4863C18.4931 19.4795 15.6299 19.4822 12.7668 19.4822C10.351 19.4822 7.93519 19.4794 5.51943 19.4863C5.2667 19.487 5.17351 19.4191 5.18639 19.1473C5.20215 18.8146 5.19488 18.4805 5.18915 18.1471C5.17742 17.4641 5.70408 16.9982 6.33954 16.9933C7.05409 16.9877 7.76872 16.992 8.49683 16.992C8.49683 16.7495 8.49683 16.5181 8.49683 16.2596C8.4129 16.2596 8.3266 16.2596 8.24029 16.2596C6.28814 16.2596 4.33592 16.2502 2.38389 16.2652C1.78978 16.2698 1.28714 16.1478 0.956694 15.6107C0.94215 10.6434 0.94215 5.66195 0.956814 0.671759C1.17701 0.460341 1.38289 0.258033 1.58667 0.0536351C1.59399 0.0462957 1.58063 0.0183448 1.57691 0C9.47171 0 17.3665 -2.91035e-09 25.2701 0.0146651C25.4815 0.234861 25.6838 0.440738 25.8882 0.644518C25.8955 0.651835 25.9235 0.638479 25.9418 0.634757C25.9418 5.61618 25.9418 10.5976 25.9418 15.6019ZM7.26531 15.8201C13.0346 15.8201 18.804 15.8201 24.5733 15.8201C24.6221 15.8201 24.6712 15.823 24.7198 15.8197C25.2251 15.7854 25.5101 15.5443 25.5088 15.0204C25.4977 10.3903 25.5024 5.76021 25.5024 1.13008C25.5023 0.699466 25.2499 0.439543 24.8306 0.439537C17.2385 0.439414 9.64642 0.441802 2.05434 0.43202C1.70019 0.431563 1.36372 0.774666 1.37382 1.10494C1.39793 1.89352 1.3816 2.68334 1.3816 3.47266C1.3816 7.34601 1.38157 11.2194 1.38165 15.0927C1.38166 15.3995 1.52445 15.6588 1.77212 15.7402C1.92705 15.7912 2.09736 15.8163 2.26088 15.8168C3.91274 15.8222 5.56461 15.8201 7.26531 15.8201ZM20.4974 19.0427C20.7464 19.0427 20.9953 19.0427 21.2544 19.0427C21.2544 18.7068 21.2792 18.3962 21.2482 18.0913C21.2074 17.6897 20.9765 17.4356 20.3954 17.4348C16.035 17.4286 11.6745 17.4314 7.31397 17.4314C7.0211 17.4314 6.72819 17.4283 6.43537 17.4322C6.01447 17.4377 5.67313 17.6694 5.63762 18.0226C5.60397 18.3573 5.63039 18.698 5.63039 19.0427C10.59 19.0427 15.5193 19.0427 20.4974 19.0427ZM8.94986 16.437C8.94986 16.6203 8.94986 16.8035 8.94986 16.9755C11.9647 16.9755 14.9467 16.9755 17.9174 16.9755C17.9174 16.7272 17.9174 16.4956 17.9174 16.2596C15.7526 16.2596 13.6046 16.2596 11.4567 16.2596C10.6836 16.2596 9.91049 16.2591 9.13741 16.2602C9.0481 16.2603 8.92517 16.221 8.94986 16.437Z" fill="white"/>
<path d="M25.9414 0.611483C25.923 0.638479 25.8951 0.651835 25.8877 0.644518C25.6833 0.440738 25.481 0.234861 25.2925 0.0146651C25.5144 -2.91035e-09 25.7222 0 25.9414 0C25.9414 0.195982 25.9414 0.392095 25.9414 0.611483Z" fill="black"/>
<path d="M1.55338 0C1.58037 0.0183448 1.59373 0.0462957 1.58641 0.0536351C1.38263 0.258033 1.17675 0.460341 0.956559 0.648876C0.941895 0.426933 0.941895 0.219109 0.941895 0C1.13788 0 1.33399 0 1.55338 0Z" fill="black"/>
<path d="M17.8706 5.79703C18.4623 5.45232 19.0396 5.11931 19.6168 4.7862C19.7596 4.70383 19.8938 4.59177 20.0474 4.54808C20.1657 4.51445 20.3275 4.53002 20.4369 4.58703C20.8882 4.82217 21.329 5.07797 21.7698 5.33281C22.2518 5.61145 22.7324 5.89291 23.2061 6.18513C23.2761 6.22826 23.3464 6.33716 23.347 6.41619C23.3561 7.54605 23.3557 8.67602 23.3475 9.8059C23.347 9.87872 23.2819 9.98034 23.2173 10.0189C22.5307 10.4288 21.8384 10.8289 21.1472 11.2309C20.8962 11.3768 20.6514 11.5367 20.3885 11.6571C20.2838 11.7051 20.1123 11.7095 20.0149 11.6552C19.2272 11.2165 18.4498 10.7591 17.6697 10.3069C17.656 10.299 17.648 10.2777 17.6344 10.2743C17.0595 10.1298 17.0266 9.71442 17.0451 9.21494C17.0783 8.31385 17.0584 7.41061 17.0511 6.50835C17.0497 6.33266 17.1103 6.22703 17.2647 6.14821C17.467 6.04499 17.6595 5.92275 17.8706 5.79703ZM19.9841 7.90773C19.9841 6.98182 19.9841 6.05592 19.9841 5.10419C19.7577 5.23601 19.5753 5.34206 19.3931 5.44829C18.7972 5.79558 18.2001 6.14069 17.6079 6.49406C17.5537 6.5264 17.4992 6.61155 17.4987 6.67259C17.4918 7.58068 17.4939 8.48884 17.4939 9.40675C18.0137 9.11316 18.5253 8.83007 19.0308 8.53643C19.3531 8.34924 19.6663 8.14642 19.9841 7.90773ZM20.5391 5.16964C20.3479 5.05866 20.4274 5.23694 20.4271 5.28712C20.4222 6.12369 20.419 6.96038 20.4304 7.79683C20.4316 7.88436 20.5071 8.00446 20.5837 8.05192C21.0703 8.3533 21.5651 8.64165 22.0609 8.92779C22.3342 9.08548 22.6147 9.23049 22.9138 9.39307C22.9138 8.46219 22.9165 7.56898 22.9088 6.67587C22.9081 6.60176 22.8557 6.49841 22.7948 6.45978C22.5639 6.31323 22.3179 6.19084 22.0809 6.05369C21.5787 5.76315 21.0787 5.46902 20.5391 5.16964ZM22.2976 9.57187C22.241 9.54536 22.182 9.52285 22.128 9.49173C21.5514 9.15929 20.9701 8.83434 20.4028 8.48654C20.2372 8.38498 20.1116 8.41741 19.9738 8.49787C19.2333 8.93007 18.4944 9.36492 17.7409 9.80711C17.7966 9.84429 17.8466 9.88208 17.9006 9.91287C18.6149 10.3204 19.3359 10.7169 20.0399 11.1415C20.1987 11.2372 20.2786 11.2062 20.413 11.1251C20.8825 10.8418 21.3621 10.5753 21.8381 10.3028C22.1188 10.1422 22.3999 9.98224 22.6952 9.81374C22.5545 9.72964 22.441 9.66187 22.2976 9.57187Z" fill="white"/>
<path d="M9.82117 11.1503C9.73105 11.2074 9.64716 11.2743 9.56307 11.2746C7.64373 11.2805 5.72436 11.2777 3.80501 11.2813C3.61148 11.2816 3.52712 11.2126 3.52746 11.0128C3.53083 9.07718 3.53087 7.14155 3.52735 5.20593C3.52699 5.01161 3.598 4.92916 3.79697 4.92952C5.71633 4.93293 7.63569 4.9335 9.55504 4.9289C9.77265 4.92837 9.83091 5.02589 9.8305 5.22464C9.82645 7.19278 9.82763 9.16094 9.82117 11.1503ZM6.923 5.37101C5.94181 5.37101 4.96062 5.37101 3.98292 5.37101C3.98292 7.20903 3.98292 9.01902 3.98292 10.8257C5.79067 10.8257 7.58439 10.8257 9.37479 10.8257C9.37479 9.00168 9.37479 7.19168 9.37479 5.37101C8.56451 5.37101 7.76817 5.37101 6.923 5.37101Z" fill="white"/>
<path d="M13.5991 6.55638C13.6811 6.49028 13.7542 6.4417 13.819 6.38374C14.0462 6.18028 14.2933 6.19414 14.4778 6.43314C14.8506 6.91588 15.2204 7.40087 15.5884 7.88731C15.6907 8.02262 15.7223 8.16051 15.6023 8.31482C15.2036 8.82761 14.8141 9.34757 14.4165 9.86128C14.2936 10.0202 14.074 10.0276 13.8825 9.88917C13.748 9.79187 13.6165 9.69017 13.4851 9.58853C13.3049 9.44907 13.2854 9.21322 13.4349 9.01703C13.4998 8.93176 13.5624 8.84467 13.6395 8.74011C12.7962 8.74011 11.9836 8.74035 11.171 8.73997C10.8845 8.73984 10.8052 8.65834 10.8047 8.36639C10.8044 8.17922 10.8036 7.99204 10.8049 7.80488C10.8065 7.57211 10.9055 7.47125 11.1372 7.47098C11.9591 7.46999 12.781 7.47059 13.6236 7.47059C13.5262 7.31147 13.4039 7.17277 13.3522 7.01144C13.2887 6.81382 13.4028 6.66178 13.5991 6.55638ZM14.203 8.78571C14.0825 8.94319 13.962 9.10066 13.8334 9.26876C13.9306 9.33768 14.0324 9.40991 14.1277 9.47757C14.4459 9.0654 14.7596 8.66856 15.0591 8.26126C15.106 8.19747 15.1319 8.05402 15.0935 8.00184C14.7785 7.57375 14.446 7.15854 14.119 6.73969C14.0208 6.8141 13.934 6.87982 13.8335 6.95592C13.9587 7.11454 14.0972 7.26491 14.2041 7.43508C14.2667 7.53464 14.3247 7.6782 14.2976 7.77836C14.2798 7.84407 14.107 7.90213 14.0023 7.9043C13.4253 7.9163 12.8479 7.91004 12.2706 7.91004C11.9319 7.91004 11.5931 7.91004 11.2572 7.91004C11.2572 8.05393 11.2572 8.17136 11.2572 8.30066C12.1716 8.30066 13.0729 8.30058 13.9742 8.3007C14.335 8.30074 14.4085 8.43347 14.203 8.78571Z" fill="white"/>
<path d="M2.0766 3.87037C1.77185 3.92388 1.72392 3.88627 1.72301 3.61237C1.72183 3.25546 1.72491 2.89853 1.72171 2.54164C1.72031 2.38692 1.7754 2.29423 1.94334 2.29446C2.11229 2.2947 2.16441 2.38993 2.16316 2.54343C2.16011 2.91655 2.16551 3.28976 2.15898 3.66278C2.15785 3.72743 2.11498 3.79134 2.0766 3.87037Z" fill="white"/>
</svg>
