<svg width="20" height="20" viewBox="0 0 20 20" fill="none" xmlns="http://www.w3.org/2000/svg">
<path d="M16.5911 7.31018C16.5279 7.24635 16.4526 7.19568 16.3696 7.16109C16.2866 7.1265 16.1975 7.10869 16.1075 7.10869C16.0175 7.10869 15.9285 7.1265 15.8454 7.16109C15.7624 7.19568 15.6871 7.24635 15.6239 7.31018C15.496 7.43827 15.4241 7.61169 15.4241 7.79247C15.4241 7.97325 15.496 8.14667 15.6239 8.27477L16.7293 9.37715H10.6494V3.26442L11.7549 4.36681C11.8833 4.49438 12.0572 4.566 12.2385 4.566C12.4198 4.566 12.5937 4.49438 12.7221 4.36681C12.7861 4.30375 12.8369 4.22865 12.8716 4.14586C12.9063 4.06307 12.9242 3.97424 12.9242 3.88452C12.9242 3.79479 12.9063 3.70596 12.8716 3.62317C12.8369 3.54038 12.7861 3.46528 12.7221 3.40222L10.5113 1.19745C10.3812 1.07086 10.2066 1 10.0249 1C9.84312 1 9.66856 1.07086 9.53848 1.19745L7.32762 3.40222C7.26361 3.46528 7.2128 3.54038 7.17811 3.62317C7.14343 3.70596 7.12557 3.79479 7.12557 3.88452C7.12557 3.97424 7.14343 4.06307 7.17811 4.14586C7.2128 4.22865 7.26361 4.30375 7.32762 4.36681C7.45607 4.49438 7.62996 4.566 7.81124 4.566C7.99252 4.566 8.16642 4.49438 8.29487 4.36681L9.3174 3.3471V9.41022H3.23752L4.37611 8.27477C4.50403 8.14667 4.57585 7.97325 4.57585 7.79247C4.57585 7.61169 4.50403 7.43827 4.37611 7.31018C4.31288 7.24635 4.23757 7.19568 4.15455 7.16109C4.07154 7.1265 3.98246 7.10869 3.89249 7.10869C3.80251 7.10869 3.71344 7.1265 3.63042 7.16109C3.5474 7.19568 3.47209 7.24635 3.40886 7.31018L1.198 9.51495C1.07106 9.64467 1 9.81875 1 10C1 10.1813 1.07106 10.3553 1.198 10.4851L3.40886 12.6898C3.53966 12.8045 3.70932 12.8652 3.88338 12.8596C4.05743 12.854 4.22283 12.7826 4.34597 12.6598C4.46911 12.537 4.54076 12.372 4.54636 12.1984C4.55196 12.0249 4.49109 11.8557 4.37611 11.7252L3.32595 10.7772H9.26765V16.6749L8.22302 15.6332C8.09457 15.5056 7.92067 15.434 7.73939 15.434C7.55811 15.434 7.38421 15.5056 7.25576 15.6332C7.19176 15.6962 7.14094 15.7713 7.10626 15.8541C7.07158 15.9369 7.05372 16.0258 7.05372 16.1155C7.05372 16.2052 7.07158 16.294 7.10626 16.3768C7.14094 16.4596 7.19176 16.5347 7.25576 16.5978L9.46663 18.8025C9.59671 18.9291 9.77126 19 9.95302 19C10.1348 19 10.3093 18.9291 10.4394 18.8025L12.6503 16.5978C12.7143 16.5347 12.7651 16.4596 12.7998 16.3768C12.8345 16.294 12.8523 16.2052 12.8523 16.1155C12.8523 16.0258 12.8345 15.9369 12.7998 15.8541C12.7651 15.7713 12.7143 15.6962 12.6503 15.6332C12.5218 15.5056 12.3479 15.434 12.1666 15.434C11.9854 15.434 11.8115 15.5056 11.683 15.6332L10.6218 16.6915V10.7717H16.569L15.5852 11.7528C15.4591 11.8858 15.3912 12.0633 15.3964 12.2463C15.4016 12.4293 15.4794 12.6027 15.6128 12.7284C15.7462 12.8541 15.9242 12.9218 16.1077 12.9167C16.2912 12.9115 16.4651 12.8339 16.5911 12.7008L18.802 10.4961C18.9289 10.3664 19 10.1923 19 10.011C19 9.82977 18.9289 9.6557 18.802 9.52597L16.5911 7.31018Z" stroke="#7AA8CC" stroke-width="0.5"/>
</svg>
