<svg width="13" height="21" viewBox="0 0 13 21" fill="none" xmlns="http://www.w3.org/2000/svg">
<path d="M9.9893 19.0636H11.3161V15.1909H9.9893V14.304L12.3573 10.0253L6.67231 0L0.987305 10.0253L3.35531 14.304V15.1909H2.02851V19.0636H3.35531V21H9.9893V19.0636ZM6.67231 8.69594C7.22094 8.69594 7.6674 9.13034 7.6674 9.66413C7.6674 10.1979 7.22094 10.6323 6.67231 10.6323C6.12367 10.6323 5.67721 10.1979 5.67721 9.66413C5.67721 9.13034 6.12367 8.69594 6.67231 8.69594ZM1.74292 10.0291L6.34061 1.92121V8.0834C5.96631 8.15817 5.62996 8.35623 5.38826 8.64418C5.14657 8.93213 5.01432 9.29236 5.01381 9.66413C5.01381 10.5539 5.75781 11.2778 6.67231 11.2778C7.5868 11.2778 8.3308 10.5539 8.3308 9.66413C8.33029 9.29236 8.19804 8.93213 7.95635 8.64418C7.71465 8.35623 7.3783 8.15817 7.004 8.0834V1.92121L11.6017 10.0291L9.3259 14.1414V15.1909H4.01871V14.1414L1.74292 10.0291ZM2.69191 18.4182V15.8363H10.6527V18.4182H2.69191ZM9.3259 20.3545H4.01871V19.0636H9.3259V20.3545Z" fill="#FFFDFD"/>
</svg>
