<svg width="27" height="24" viewBox="0 0 27 24" fill="none" xmlns="http://www.w3.org/2000/svg">
<path d="M13.8233 10.87C13.7143 10.86 13.5835 10.86 13.4636 10.87C10.8696 10.79 8.80957 8.84 8.80957 6.44C8.80957 3.99 10.9677 2 13.6489 2C16.3193 2 18.4883 3.99 18.4883 6.44C18.4774 8.84 16.4174 10.79 13.8233 10.87Z" stroke="white" stroke-linecap="round" stroke-linejoin="round"/>
<path d="M8.37327 14.56C5.7356 16.18 5.7356 18.82 8.37327 20.43C11.3706 22.27 16.2863 22.27 19.2836 20.43C21.9213 18.81 21.9213 16.17 19.2836 14.56C16.2972 12.73 11.3815 12.73 8.37327 14.56Z" stroke="white" stroke-linecap="round" stroke-linejoin="round"/>
</svg>
