<svg width="16" height="17" viewBox="0 0 16 17" fill="none" xmlns="http://www.w3.org/2000/svg">
<path d="M8.15543 17.0006C6.73328 17.0006 5.34042 16.5963 4.13933 15.8348C2.93823 15.0733 1.9784 13.986 1.37178 12.6997C0.765168 11.4134 0.536774 9.98116 0.713238 8.56999C0.889703 7.15883 1.46375 5.82692 2.36843 4.72961C2.41026 4.67899 2.46165 4.63709 2.51966 4.60633C2.57768 4.57557 2.64119 4.55653 2.70656 4.55031C2.77193 4.54409 2.83789 4.5508 2.90067 4.57007C2.96344 4.58934 3.02181 4.62078 3.07243 4.66261C3.12306 4.70444 3.16495 4.75582 3.19571 4.81384C3.22648 4.87186 3.24552 4.93536 3.25174 5.00073C3.25796 5.06611 3.25124 5.13206 3.23197 5.19484C3.21271 5.25762 3.18126 5.31599 3.13943 5.36661C2.20005 6.50641 1.67687 7.93215 1.65606 9.40901C1.63524 10.8859 2.11804 12.3258 3.02492 13.4916C3.93181 14.6574 5.20871 15.4796 6.64531 15.8228C8.08191 16.1659 9.59254 16.0095 10.9284 15.3794C12.2643 14.7493 13.3457 13.683 13.9946 12.3562C14.6434 11.0293 14.8211 9.52106 14.4982 8.07977C14.1754 6.63847 13.3713 5.35012 12.2183 4.42689C11.0654 3.50366 9.63245 3.00062 8.15543 3.00061H5.15543C5.02283 3.00061 4.89565 2.94793 4.80188 2.85416C4.70811 2.7604 4.65543 2.63322 4.65543 2.50061C4.65543 2.368 4.70811 2.24083 4.80188 2.14706C4.89565 2.05329 5.02283 2.00061 5.15543 2.00061H8.15543C10.1446 2.00061 12.0522 2.79079 13.4587 4.19731C14.8653 5.60383 15.6554 7.51149 15.6554 9.50061C15.6554 11.4897 14.8653 13.3974 13.4587 14.8039C12.0522 16.2104 10.1446 17.0006 8.15543 17.0006Z" fill="#7AA8CC"/>
<path d="M7.15542 5.00063C7.08971 5.00075 7.02463 4.98792 6.96389 4.96286C6.90314 4.93781 6.84794 4.90103 6.80142 4.85463L4.80142 2.85463C4.70753 2.76075 4.65479 2.63341 4.65479 2.50063C4.65479 2.36786 4.70753 2.24052 4.80142 2.14663C4.8953 2.05275 5.02264 2 5.15542 2C5.28819 2 5.41553 2.05275 5.50942 2.14663L7.50942 4.14663C7.57952 4.21656 7.62729 4.30573 7.64666 4.40284C7.66602 4.49995 7.65612 4.60062 7.6182 4.6921C7.58028 4.78357 7.51606 4.86172 7.43367 4.91665C7.35128 4.97158 7.25444 5.00081 7.15542 5.00063Z" fill="#7AA8CC"/>
<path d="M5.15519 3.00063C5.05617 3.00081 4.95933 2.97158 4.87694 2.91665C4.79455 2.86172 4.73032 2.78357 4.69241 2.6921C4.65449 2.60062 4.64459 2.49995 4.66395 2.40284C4.68332 2.30573 4.73109 2.21656 4.80119 2.14663L6.80119 0.146631C6.89508 0.0527448 7.02242 -9.89257e-10 7.15519 0C7.28797 9.89257e-10 7.41531 0.0527448 7.50919 0.146631C7.60308 0.240518 7.65582 0.367856 7.65582 0.500632C7.65582 0.633407 7.60308 0.760745 7.50919 0.854632L5.50919 2.85463C5.46267 2.90103 5.40746 2.93781 5.34672 2.96286C5.28598 2.98791 5.2209 3.00075 5.15519 3.00063Z" fill="#7AA8CC"/>
</svg>
