<svg xmlns="http://www.w3.org/2000/svg" width="19" height="20" viewBox="0 0 19 20" fill="none">
<path d="M8.10026 0.5C3.75848 0.5 0.226562 4.22813 0.226562 8.81113C0.226562 13.3941 3.75848 17.1223 8.10026 17.1223C10.0687 17.1223 11.8661 16.3493 13.2474 15.0837L17.2596 19.3188C17.3115 19.3755 17.3736 19.4207 17.4422 19.4518C17.5108 19.4829 17.5846 19.4993 17.6593 19.5C17.7339 19.5007 17.808 19.4856 17.8771 19.4558C17.9462 19.4259 18.009 19.3819 18.0618 19.3261C18.1146 19.2704 18.1564 19.2041 18.1847 19.1311C18.213 19.0582 18.2272 18.98 18.2265 18.9012C18.2259 18.8224 18.2104 18.7445 18.1809 18.672C18.1514 18.5996 18.1086 18.5341 18.0549 18.4793L14.0427 14.2442C15.2873 12.7391 15.9734 10.809 15.974 8.81113C15.974 4.22813 12.442 0.5 8.10026 0.5ZM8.10026 1.6873C11.8346 1.6873 14.8491 4.86928 14.8491 8.81113C14.8491 12.753 11.8346 15.9349 8.10026 15.9349C4.36588 15.9349 1.35138 12.753 1.35138 8.81113C1.35138 4.86928 4.36588 1.6873 8.10026 1.6873ZM8.09126 5.24922C8.0174 5.25045 7.9445 5.26704 7.87671 5.29802C7.80893 5.329 7.74759 5.37378 7.6962 5.42979C7.6448 5.4858 7.60437 5.55194 7.5772 5.62445C7.55003 5.69696 7.53666 5.7744 7.53785 5.85237V8.21747H5.29722C5.14807 8.21747 5.00501 8.28002 4.89954 8.39135C4.79407 8.50268 4.73482 8.65368 4.73482 8.81113C4.73482 8.96857 4.79407 9.11957 4.89954 9.2309C5.00501 9.34223 5.14807 9.40478 5.29722 9.40478H7.53785V11.7723C7.53785 11.9297 7.59711 12.0807 7.70258 12.192C7.80805 12.3034 7.9511 12.3659 8.10026 12.3659C8.24942 12.3659 8.39247 12.3034 8.49794 12.192C8.60342 12.0807 8.66267 11.9297 8.66267 11.7723V9.40478H10.9055C11.0547 9.40478 11.1978 9.34223 11.3032 9.2309C11.4087 9.11957 11.468 8.96857 11.468 8.81113C11.468 8.65368 11.4087 8.50268 11.3032 8.39135C11.1978 8.28002 11.0547 8.21747 10.9055 8.21747H8.66267V5.85237C8.66388 5.7728 8.64994 5.6938 8.62165 5.62004C8.59336 5.54628 8.55132 5.47928 8.49802 5.42301C8.44471 5.36675 8.38124 5.32237 8.31136 5.29251C8.24149 5.26266 8.16664 5.24793 8.09126 5.24922Z" fill="#7aa8cc"/>
</svg>