<svg width="15" height="20" viewBox="0 0 15 20" fill="none" xmlns="http://www.w3.org/2000/svg">
<path d="M13.4375 7.05505C13.1242 7.0538 12.818 7.14826 12.5598 7.32583C12.4535 7.01878 12.2548 6.75234 11.9909 6.56325C11.727 6.37417 11.411 6.27178 11.0866 6.2702C10.7733 6.26895 10.4672 6.36341 10.2089 6.54098C10.1027 6.23393 9.90388 5.96748 9.64 5.7784C9.37612 5.58932 9.06016 5.48693 8.7357 5.48535C8.45949 5.48651 8.18873 5.56244 7.95208 5.70511V1.95352C7.95224 1.72032 7.90053 1.49001 7.8007 1.27934C7.70086 1.06867 7.55542 0.882918 7.37493 0.735596C7.19444 0.588274 6.98345 0.483081 6.75729 0.427661C6.53112 0.372242 6.29547 0.367988 6.06746 0.415211C5.70732 0.496503 5.38625 0.699839 5.15852 0.990852C4.93078 1.28187 4.81035 1.64271 4.81758 2.01238V11.1127L3.74401 9.88444C3.41199 9.50713 2.94799 9.27191 2.4478 9.22737C1.94762 9.18282 1.44946 9.33234 1.05618 9.64506L0.781908 9.86482C0.55861 10.0378 0.407073 10.2875 0.356442 10.5656C0.305811 10.8438 0.359663 11.1309 0.507639 11.3717L3.30126 15.8846C3.83765 16.8673 4.6215 17.6922 5.57489 18.2774C6.52828 18.8626 7.618 19.1876 8.7357 19.2202C10.3983 19.2202 11.9929 18.5587 13.1686 17.3812C14.3442 16.2037 15.0047 14.6067 15.0047 12.9414V8.62476C15.0047 8.20844 14.8396 7.80919 14.5457 7.51481C14.2517 7.22043 13.8531 7.05505 13.4375 7.05505ZM8.7357 18.4354C7.75406 18.4025 6.79812 18.1127 5.96295 17.595C5.12778 17.0773 4.44247 16.3496 3.97518 15.4844L1.18939 10.9479C1.14425 10.8726 1.12772 10.7836 1.14283 10.6971C1.15795 10.6106 1.20369 10.5325 1.27167 10.477L1.54594 10.2572C1.78195 10.0705 2.08045 9.98148 2.38 10.0085C2.67956 10.0355 2.95738 10.1765 3.15629 10.4024L4.91553 12.4156C4.96814 12.4753 5.03766 12.5176 5.11485 12.5369C5.19203 12.5561 5.27323 12.5513 5.34765 12.5232C5.42207 12.4951 5.48619 12.445 5.53148 12.3795C5.57677 12.314 5.60109 12.2362 5.6012 12.1566V2.01238C5.59229 1.822 5.64891 1.63433 5.76159 1.48075C5.87428 1.32718 6.0362 1.21701 6.22027 1.16867C6.33599 1.14374 6.45585 1.1454 6.57085 1.17351C6.68584 1.20163 6.79298 1.25547 6.88423 1.33099C6.97547 1.40652 7.04845 1.50177 7.09767 1.60959C7.1469 1.71741 7.1711 1.83499 7.16845 1.95352V9.80203C7.16845 9.90611 7.20973 10.0059 7.28321 10.0795C7.35669 10.1531 7.45635 10.1945 7.56027 10.1945C7.66418 10.1945 7.76384 10.1531 7.83732 10.0795C7.9108 10.0059 7.95208 9.90611 7.95208 9.80203V7.05505C7.95208 6.8469 8.03464 6.64727 8.1816 6.50008C8.32855 6.35289 8.52787 6.2702 8.7357 6.2702C8.94353 6.2702 9.14285 6.35289 9.28981 6.50008C9.43677 6.64727 9.51933 6.8469 9.51933 7.05505V9.80203C9.51933 9.90611 9.56061 10.0059 9.63409 10.0795C9.70757 10.1531 9.80723 10.1945 9.91114 10.1945C10.0151 10.1945 10.1147 10.1531 10.1882 10.0795C10.2617 10.0059 10.303 9.90611 10.303 9.80203V7.8399C10.303 7.63175 10.3855 7.43212 10.5325 7.28493C10.6794 7.13774 10.8787 7.05505 11.0866 7.05505C11.2944 7.05505 11.4937 7.13774 11.6407 7.28493C11.7876 7.43212 11.8702 7.63175 11.8702 7.8399V9.80203C11.8702 9.90611 11.9115 10.0059 11.985 10.0795C12.0584 10.1531 12.1581 10.1945 12.262 10.1945C12.3659 10.1945 12.4656 10.1531 12.5391 10.0795C12.6125 10.0059 12.6538 9.90611 12.6538 9.80203V8.62476C12.6538 8.4166 12.7364 8.21697 12.8833 8.06978C13.0303 7.92259 13.2296 7.8399 13.4375 7.8399C13.6453 7.8399 13.8446 7.92259 13.9916 8.06978C14.1385 8.21697 14.2211 8.4166 14.2211 8.62476V12.9414C14.2211 14.3985 13.6432 15.7959 12.6144 16.8263C11.5857 17.8566 10.1905 18.4354 8.7357 18.4354Z" fill="#7AA8CC"/>
<path d="M0.786349 3.80185L1.6836 2.9032V7.44749C1.6836 7.55157 1.72488 7.65138 1.79836 7.72497C1.87184 7.79857 1.9715 7.83991 2.07541 7.83991C2.17933 7.83991 2.27899 7.79857 2.35247 7.72497C2.42594 7.65138 2.46722 7.55157 2.46722 7.44749V2.89927L3.36448 3.80185C3.4009 3.83863 3.44423 3.86783 3.49198 3.88775C3.53973 3.90767 3.59094 3.91793 3.64266 3.91793C3.69439 3.91793 3.7456 3.90767 3.79334 3.88775C3.84109 3.86783 3.88442 3.83863 3.92085 3.80185C3.95757 3.76537 3.98672 3.72197 4.00661 3.67415C4.02651 3.62633 4.03675 3.57504 4.03675 3.52323C4.03675 3.47143 4.02651 3.42013 4.00661 3.37231C3.98672 3.32449 3.95757 3.28109 3.92085 3.24461L2.07541 1.40021L0.229975 3.24461C0.156195 3.3185 0.114746 3.41873 0.114746 3.52323C0.114746 3.62773 0.156195 3.72796 0.229975 3.80185C0.303754 3.87575 0.403821 3.91726 0.508162 3.91726C0.612502 3.91726 0.712569 3.87575 0.786349 3.80185Z" fill="#7AA8CC"/>
</svg>
