<svg width="412" height="832" viewBox="0 0 412 832" fill="none" xmlns="http://www.w3.org/2000/svg">
<g opacity="0.2" clip-path="url(#clip0_3015_6009)">
<g opacity="0.6">
<path d="M-83.4599 657.482C-83.4599 657.482 -1.58892 585.969 49.7561 537.171C101.101 488.374 181.647 469.534 296.832 484.723C412.018 499.911 373.844 341.87 423.235 360.08C472.627 378.289 311.245 482.917 373.126 350.589C435.008 218.261 506.357 222.139 570.669 191.573C634.98 161.007 472.3 152.077 472.3 152.077" stroke="#F8FFA0"/>
<path d="M-99.5365 348.112C-87.1466 215.922 83.9774 343.435 151.315 254.839C218.652 166.243 129.363 153.825 74.2027 187.185C19.0427 220.544 27.166 298.815 76.5571 317.025C125.948 335.234 228.27 370.145 290.151 237.816C352.033 105.488 215.493 93.04 327.529 18.11C417.157 -41.8341 348.435 -117.957 318.307 -103.832" stroke="#D35710"/>
<path d="M-98.6119 362.234C-86.8119 236.339 80.0619 354.374 146.637 267.674C213.213 180.973 132.012 168.249 84.9632 200.743C37.9149 233.238 43.8336 300.255 93.2247 318.465C142.616 336.675 232.38 374.905 294.262 242.577C356.143 110.248 229.503 98.5777 339.266 25.7602C427.689 -32.7848 354.493 -105.708 325.799 -92.2556" stroke="#D35710"/>
<path d="M-97.6886 376.361C-86.4786 256.761 76.1451 365.319 141.959 280.514C207.773 195.708 134.659 182.679 95.7224 214.308C56.7857 245.936 60.4998 301.701 109.891 319.911C159.282 338.121 236.489 379.671 298.37 247.342C360.252 115.014 243.512 104.121 351.002 33.4161C438.219 -23.73 360.549 -93.4536 333.29 -80.6738" stroke="#D35710"/>
<path d="M-96.7663 390.496C-86.1464 277.19 72.2272 376.271 137.28 293.361C202.332 210.45 137.305 197.115 106.48 227.878C75.6555 258.642 77.165 303.154 126.556 321.364C175.947 339.573 240.597 384.443 302.478 252.115C364.36 119.787 257.519 109.671 362.737 41.0787C448.748 -14.6685 366.604 -81.1924 340.779 -69.0852" stroke="#D35710"/>
<path d="M-95.8456 404.639C-85.8157 297.628 68.3078 387.231 132.599 306.216C196.89 225.201 139.95 211.56 117.237 241.458C94.5238 271.356 93.8286 304.615 143.22 322.825C192.611 341.035 244.703 389.225 306.585 256.896C368.466 124.568 271.525 115.23 374.47 48.7499C459.276 -5.59834 372.657 -68.9225 348.267 -57.488" stroke="#D35710"/>
<path d="M-94.9264 418.792C-85.4864 318.076 64.3868 398.202 127.916 319.082C191.446 239.962 142.594 226.015 127.992 255.048C113.391 284.081 110.491 306.087 159.882 324.297C209.273 342.507 248.808 394.016 310.69 261.688C372.571 129.36 285.529 120.799 386.202 56.4317C469.802 3.48245 378.709 -56.6421 355.754 -45.8801" stroke="#D35710"/>
<path d="M-94.0105 432.96C-85.1605 338.538 60.4626 409.187 123.231 331.962C185.999 254.737 145.234 240.484 138.744 268.652C132.254 296.82 127.15 307.573 176.541 325.782C225.932 343.992 252.91 398.822 314.791 266.493C376.673 134.165 299.53 126.382 397.93 64.1271C480.325 12.5768 384.758 -44.348 363.238 -34.2587" stroke="#D35710"/>
<path d="M-93.0984 447.144C-84.8384 359.018 56.5346 420.189 118.541 344.859C180.547 269.529 147.87 254.971 149.492 282.273C151.114 309.576 143.805 309.076 193.196 327.285C242.587 345.495 257.007 403.645 318.889 271.316C380.77 138.988 313.527 131.982 409.655 71.84C490.844 21.6886 390.803 -32.0365 370.717 -22.6198" stroke="#D35710"/>
<path d="M-92.1916 461.353C-84.5216 379.521 52.6012 431.214 113.846 357.78C175.091 284.345 150.501 269.48 160.234 295.918C169.968 322.355 160.454 310.602 209.846 328.812C259.237 347.021 261.1 408.491 322.981 276.163C384.863 143.834 327.519 137.606 421.374 79.5763C501.358 30.8239 396.843 -19.7016 378.191 -10.9575" stroke="#D35710"/>
<path d="M-91.2924 475.592C-84.2125 400.055 48.6602 442.271 109.144 370.731C169.627 299.192 153.124 284.022 170.969 309.594C188.815 335.166 177.096 312.16 226.488 330.37C275.879 348.579 265.184 413.369 327.066 281.04C388.948 148.712 341.503 143.261 433.086 87.3439C511.864 39.9904 402.874 -7.33539 385.658 0.736083" stroke="#D35710"/>
<path d="M-90.4036 489.874C-83.9137 420.632 44.7089 453.37 104.431 383.726C164.153 314.082 155.737 298.606 181.694 323.312C207.651 348.019 193.728 313.76 243.119 331.97C292.51 350.18 269.259 418.289 331.14 285.961C393.022 153.632 355.477 148.959 444.787 95.1543C522.36 49.1998 408.896 5.07366 393.114 12.4725" stroke="#D35710"/>
<path d="M-89.531 504.216C-83.631 441.268 40.7414 464.529 99.7017 396.78C158.662 329.031 158.334 313.249 192.403 337.09C226.471 360.932 210.344 315.42 259.735 333.63C309.126 351.84 273.317 423.269 335.199 290.94C397.08 158.612 369.435 154.716 456.472 103.024C532.84 58.4684 414.901 17.542 400.554 24.2682" stroke="#D35710"/>
<path d="M-88.6807 518.64C-83.3707 461.987 36.7516 475.771 94.9504 409.917C153.149 344.063 160.909 327.975 203.089 350.951C245.269 373.928 226.937 317.163 276.328 335.373C325.719 353.582 277.353 428.331 339.235 296.003C401.116 163.674 383.37 160.556 468.135 110.976C543.297 67.8199 420.885 30.0931 407.972 36.1467" stroke="#D35710"/>
<path d="M-87.862 533.178C-83.142 482.82 32.7301 487.126 90.1674 423.168C147.605 359.209 163.451 342.815 213.743 364.926C264.035 387.037 243.499 319.02 292.89 337.229C342.281 355.439 281.357 433.508 343.239 301.179C405.121 168.851 397.274 166.51 479.766 119.043C553.722 77.2853 426.836 42.7582 415.358 48.1392" stroke="#B7BE66"/>
<path d="M-87.0856 547.869C-82.9556 503.806 28.6664 498.634 85.3421 436.571C142.018 374.507 165.952 357.808 224.356 379.054C282.759 400.299 260.018 321.029 309.409 339.238C358.8 357.448 285.32 438.837 347.201 306.508C409.083 174.18 411.136 172.616 491.355 127.262C564.106 86.9033 432.745 55.5759 422.702 60.2842" stroke="#BFC66E"/>
<path d="M-86.3644 562.754C-82.8244 524.985 24.5474 510.337 80.4616 450.168C136.376 390 168.397 372.994 234.913 393.375C301.428 413.755 276.482 323.232 325.873 341.441C375.264 359.651 289.226 444.36 351.108 312.031C412.99 179.703 424.942 178.916 502.889 135.675C574.434 96.7152 438.599 68.5875 429.991 72.6232" stroke="#C7CE75"/>
<path d="M-85.7083 577.871C-82.7583 546.397 20.3634 522.271 75.5161 463.997C130.669 405.724 170.778 388.413 245.405 407.928C320.032 427.443 292.881 325.667 342.272 343.877C391.663 362.086 293.068 450.115 354.95 317.786C416.831 185.458 438.683 185.449 514.358 144.32C584.697 106.759 444.388 81.8312 437.214 85.1943" stroke="#D0D67C"/>
<path d="M-85.1239 593.247C-82.7639 568.068 16.1077 534.464 70.4989 478.086C124.89 421.708 173.086 404.091 255.825 422.741C338.564 441.391 309.209 328.362 358.6 346.571C407.991 364.781 296.838 456.129 358.72 323.801C420.601 191.473 452.353 192.241 525.755 153.225C594.888 117.063 450.105 95.3344 444.366 98.0249" stroke="#D8DE83"/>
<path d="M-84.6127 608.898C-82.8427 590.013 11.7787 546.932 65.4084 492.449C119.038 437.966 175.322 420.044 266.172 437.828C357.022 455.613 325.463 331.33 374.854 349.54C424.245 367.75 300.535 462.418 362.417 330.09C424.298 197.761 465.949 199.307 537.078 162.403C605.007 127.64 455.749 109.112 451.445 111.13" stroke="#E0E68B"/>
<path d="M-84.1708 624.825C-82.9908 612.235 7.3804 559.677 60.2485 507.089C113.117 454.501 177.487 436.273 276.45 453.192C375.412 470.111 341.647 334.576 391.039 352.786C440.43 370.995 304.162 468.983 366.044 336.655C427.926 204.327 479.476 206.65 548.333 171.859C615.055 138.495 461.324 123.166 458.454 124.511" stroke="#E8EF92"/>
<path d="M-83.7912 641.023C-83.2012 634.729 2.91992 572.693 55.0265 522C107.133 471.307 179.591 452.773 286.665 468.827C393.739 484.881 357.77 338.093 407.161 356.302C456.552 374.512 307.728 475.82 369.609 343.492C431.491 211.163 492.941 214.264 559.525 181.585C625.042 149.62 466.836 137.491 465.401 138.164" stroke="#F0F799"/>
</g>
</g>
<defs>
<clipPath id="clip0_3015_6009">
<rect width="435" height="892" fill="white" transform="translate(-19)"/>
</clipPath>
</defs>
</svg>
