<svg width="10" height="19" viewBox="0 0 10 19" fill="none" xmlns="http://www.w3.org/2000/svg">
<path d="M7.83787 1.54027C7.83787 5.4162 7.83787 9.26462 7.83787 13.1472C8.09889 13.1472 8.35437 13.1718 8.60439 13.1414C8.97531 13.0962 9.47334 13.6438 9.43444 14.067C9.40359 14.4026 9.40259 14.7475 9.43469 15.0828C9.47525 15.5067 8.97687 16.0689 8.58385 16.0137C8.3485 15.9806 8.10625 16.0076 7.83787 16.0076C7.83787 16.4542 7.83787 16.8903 7.83787 17.3265C7.83787 17.5464 7.83797 17.7664 7.83784 17.9863C7.83765 18.3312 7.75888 18.4293 7.48357 18.428C7.22513 18.4268 7.14225 18.3232 7.14215 17.9997C7.14193 17.349 7.14208 16.6983 7.14208 16.0076C6.92897 16.0076 6.71788 16.0076 6.5068 16.0076C5.91577 16.0076 5.54601 15.6086 5.55387 14.9611C5.55859 14.5725 5.55076 14.1776 5.61081 13.7976C5.66724 13.4405 6.06075 13.1508 6.38481 13.1474C6.6249 13.1449 6.86501 13.145 7.10511 13.1429C7.11068 13.1429 7.11617 13.1303 7.14208 13.0986C7.14208 13.0267 7.14208 12.9283 7.14208 12.8299C7.14208 8.69644 7.14205 4.56302 7.14214 0.429601C7.14215 0.105273 7.2248 0.00144797 7.48246 1.76791e-05C7.75864 -0.00151542 7.83768 0.0962858 7.83783 0.440462C7.83798 0.797896 7.83787 1.15533 7.83787 1.54027ZM6.29776 14.1307C6.28101 14.3173 6.25302 14.5036 6.24981 14.6904C6.24278 15.0989 6.37061 15.2354 6.74522 15.2371C7.15894 15.2389 7.57275 15.2315 7.98637 15.2388C8.73819 15.252 8.7477 15.2059 8.72979 14.3914C8.72161 14.0192 8.65803 13.9276 8.29564 13.9201C7.77453 13.9092 7.25273 13.9054 6.73205 13.9251C6.59158 13.9304 6.45407 14.0315 6.29776 14.1307Z" fill="#7AA8CC"/>
<path d="M2.42024 10.0116C2.42024 8.44523 2.42024 6.90632 2.42024 5.33588C2.20655 5.33588 1.99991 5.3121 1.79929 5.34052C1.28169 5.41384 0.764428 4.82604 0.824776 4.27118C0.854262 4.00009 0.85155 3.71925 0.825235 3.44734C0.774989 2.92817 1.28828 2.35651 1.75868 2.41591C1.96941 2.44252 2.18517 2.42041 2.42024 2.42041C2.42024 1.73502 2.41987 1.06863 2.42041 0.402249C2.42065 0.109909 2.51333 0.00138498 2.76065 1.64154e-05C3.02959 -0.0014718 3.1157 0.097949 3.1159 0.413181C3.11631 1.07195 3.11603 1.73072 3.11603 2.42041C3.33029 2.42041 3.537 2.44414 3.7377 2.41577C4.25397 2.34281 4.77194 2.92934 4.71148 3.4859C4.68203 3.75701 4.6848 4.03782 4.71102 4.30975C4.76095 4.82769 4.2484 5.40011 3.77687 5.34039C3.56619 5.31371 3.35047 5.33588 3.11603 5.33588C3.11603 5.4534 3.11603 5.55155 3.11603 5.64969C3.11603 9.76588 3.11606 13.8821 3.11597 17.9983C3.11596 18.3228 3.03335 18.4266 2.77563 18.428C2.49941 18.4295 2.42029 18.3318 2.42028 17.9873C2.42021 15.3379 2.42024 12.6885 2.42024 10.0116ZM3.93889 4.4528C3.96275 4.15791 4.00214 3.86326 4.00574 3.56807C4.00883 3.31427 3.8629 3.19085 3.63524 3.19069C3.05566 3.19029 2.47602 3.18554 1.89654 3.1938C1.73484 3.19611 1.56328 3.24139 1.55006 3.46881C1.53431 3.73961 1.52416 4.01459 1.54939 4.2834C1.57176 4.52169 1.75267 4.56707 1.94155 4.5662C2.28101 4.56463 2.62081 4.57602 2.95985 4.56277C3.27644 4.55039 3.59223 4.51304 3.93889 4.4528Z" fill="#7AA8CC"/>
</svg>
