<svg width="19" height="18" viewBox="0 0 19 18" fill="#FDFDFD" xmlns="http://www.w3.org/2000/svg">
<path d="M8.04069 0C3.69891 0 0.166992 3.53192 0.166992 7.8737C0.166992 12.2155 3.69891 15.7474 8.04069 15.7474C10.0091 15.7474 11.8066 15.0151 13.1878 13.8161L17.2001 17.8283C17.2519 17.882 17.314 17.9249 17.3826 17.9543C17.4512 17.9838 17.525 17.9993 17.5997 18C17.6744 18.0006 17.7484 17.9864 17.8175 17.9581C17.8867 17.9298 17.9495 17.8881 18.0023 17.8353C18.0551 17.7825 18.0968 17.7197 18.1251 17.6506C18.1534 17.5814 18.1676 17.5074 18.167 17.4327C18.1663 17.358 18.1508 17.2842 18.1213 17.2156C18.0919 17.147 18.049 17.0849 17.9953 17.0331L13.9831 13.0208C15.2277 11.5949 15.9138 9.76643 15.9144 7.8737C15.9144 3.53192 12.3825 0 8.04069 0ZM8.04069 1.12481C11.7751 1.12481 14.7896 4.13932 14.7896 7.8737C14.7896 11.6081 11.7751 14.6226 8.04069 14.6226C4.30631 14.6226 1.29181 11.6081 1.29181 7.8737C1.29181 4.13932 4.30631 1.12481 8.04069 1.12481ZM8.03169 4.49926C7.95783 4.50043 7.88493 4.51614 7.81714 4.54549C7.74936 4.57484 7.68802 4.61726 7.63663 4.67032C7.58523 4.72339 7.5448 4.78605 7.51763 4.85474C7.49046 4.92343 7.47709 4.9968 7.47828 5.07066V7.31129H5.23765C5.08849 7.31129 4.94544 7.37055 4.83997 7.47602C4.7345 7.58149 4.67525 7.72454 4.67525 7.8737C4.67525 8.02286 4.7345 8.16591 4.83997 8.27138C4.94544 8.37685 5.08849 8.43611 5.23765 8.43611H7.47828V10.679C7.47828 10.8281 7.53754 10.9712 7.64301 11.0767C7.74848 11.1821 7.89153 11.2414 8.04069 11.2414C8.18985 11.2414 8.3329 11.1821 8.43837 11.0767C8.54385 10.9712 8.6031 10.8281 8.6031 10.679V8.43611H10.846C10.9951 8.43611 11.1382 8.37685 11.2437 8.27138C11.3491 8.16591 11.4084 8.02286 11.4084 7.8737C11.4084 7.72454 11.3491 7.58149 11.2437 7.47602C11.1382 7.37055 10.9951 7.31129 10.846 7.31129H8.6031V5.07066C8.60431 4.99529 8.59037 4.92044 8.56208 4.85056C8.53379 4.78069 8.49175 4.71721 8.43845 4.66391C8.38514 4.6106 8.32167 4.56856 8.25179 4.54028C8.18192 4.51199 8.10707 4.49804 8.03169 4.49926Z" fill="#FDFDFD"/>
</svg>
